ComicNeue-Angular_Bold.ufo
<glyph name="exclam" format="1">
  <advance width="211"/>
  <unicode hex="0021"/>
  <outline>
    <contour>
      <point x="144" y="179" type="line"/>
      <point x="50" y="160" type="line"/>
      <point x="50" y="662" type="line"/>
      <point x="144" y="679" type="line"/>
    </contour>
    <contour>
      <point x="149" y="134" type="line"/>
      <point x="139" y="12" type="line"/>
      <point x="41" y="-5" type="line"/>
      <point x="51" y="117" type="line"/>
    </contour>
  </outline>
</glyph>
<glyph name="quotedbl" format="1">
  <advance width="338"/>
  <unicode hex="0022"/>
  <outline>
    <contour>
      <point x="135" y="467" type="line"/>
      <point x="40" y="450" type="line"/>
      <point x="40" y="660" type="line"/>
      <point x="135" y="678" type="line"/>
    </contour>
    <contour>
      <point x="284" y="467" type="line"/>
      <point x="189" y="450" type="line"/>
      <point x="189" y="660" type="line"/>
      <point x="284" y="678" type="line"/>
    </contour>
  </outline>
</glyph>
<glyph name="ampersand" format="1">
  <advance width="688"/>
  <unicode hex="0026"/>
  <outline>
    <contour>
      <point x="503" y="170" type="curve"/>
      <point x="602" y="51" type="line"/>
      <point x="530" y="-9" type="line"/>
      <point x="450" y="86" type="line"/>
      <point x="398" y="24"/>
      <point x="322" y="-4"/>
      <point x="268" y="-4" type="curve" smooth="yes"/>
      <point x="169" y="-4"/>
      <point x="61" y="70"/>
      <point x="61" y="187" type="curve" smooth="yes"/>
      <point x="61" y="291"/>
      <point x="127" y="345"/>
      <point x="196" y="385" type="curve"/>
      <point x="169" y="419"/>
      <point x="140" y="468"/>
      <point x="140" y="521" type="curve" smooth="yes"/>
      <point x="140" y="601"/>
      <point x="215" y="673"/>
      <point x="296" y="673" type="curve" smooth="yes"/>
      <point x="377" y="673"/>
      <point x="453" y="600"/>
      <point x="453" y="524" type="curve" smooth="yes"/>
      <point x="453" y="430"/>
      <point x="395" y="392"/>
      <point x="344" y="359" type="curve"/>
      <point x="434" y="252" type="line"/>
      <point x="444" y="282"/>
      <point x="453" y="321"/>
      <point x="464" y="376" type="curve"/>
      <point x="542" y="286" type="line"/>
      <point x="529" y="236"/>
      <point x="516" y="198"/>
    </contour>
    <contour>
      <point x="235" y="521" type="curve" smooth="yes"/>
      <point x="235" y="491"/>
      <point x="260" y="455"/>
      <point x="282" y="430" type="curve"/>
      <point x="356" y="471"/>
      <point x="359" y="497"/>
      <point x="359" y="524" type="curve" smooth="yes"/>
      <point x="359" y="551"/>
      <point x="327" y="579"/>
      <point x="296" y="579" type="curve" smooth="yes"/>
      <point x="268" y="579"/>
      <point x="235" y="554"/>
    </contour>
    <contour>
      <point x="268" y="91" type="curve" smooth="yes"/>
      <point x="301" y="91"/>
      <point x="353" y="115"/>
      <point x="387" y="160" type="curve"/>
      <point x="261" y="312" type="line"/>
      <point x="206" y="282"/>
      <point x="155" y="246"/>
      <point x="155" y="187" type="curve" smooth="yes"/>
      <point x="155" y="121"/>
      <point x="223" y="91"/>
    </contour>
  </outline>
</glyph>
<glyph name="quotesingle" format="1">
  <advance width="228"/>
  <unicode hex="0027"/>
  <outline>
    <contour>
      <point x="154" y="467" type="line"/>
      <point x="60" y="450" type="line"/>
      <point x="60" y="660" type="line"/>
      <point x="154" y="678" type="line"/>
    </contour>
  </outline>
</glyph>
<glyph name="parenleft" format="1">
  <advance width="403"/>
  <unicode hex="0028"/>
  <outline>
    <contour>
      <point x="322" y="-48" type="curve"/>
      <point x="257" y="-116" type="line"/>
      <point x="129" y="6"/>
      <point x="58" y="197"/>
      <point x="58" y="343" type="curve" smooth="yes"/>
      <point x="58" y="503"/>
      <point x="143" y="678"/>
      <point x="280" y="792" type="curve"/>
      <point x="337" y="718" type="line"/>
      <point x="232" y="627"/>
      <point x="153" y="485"/>
      <point x="153" y="343" type="curve" smooth="yes"/>
      <point x="153" y="208"/>
      <point x="225" y="45"/>
    </contour>
  </outline>
</glyph>
<glyph name="asterisk" format="1">
  <advance width="443"/>
  <unicode hex="002A"/>
  <outline>
    <contour>
      <point x="288" y="514" type="line"/>
      <point x="327" y="460" type="line"/>
      <point x="249" y="404" type="line"/>
      <point x="209" y="459" type="line"/>
      <point x="169" y="404" type="line"/>
      <point x="92" y="460" type="line"/>
      <point x="132" y="514" type="line"/>
      <point x="67" y="535" type="line"/>
      <point x="97" y="626" type="line"/>
      <point x="162" y="605" type="line"/>
      <point x="162" y="673" type="line"/>
      <point x="257" y="673" type="line"/>
      <point x="257" y="605" type="line"/>
      <point x="322" y="626" type="line"/>
      <point x="351" y="534" type="line"/>
    </contour>
  </outline>
</glyph>
<glyph name="slash" format="1">
  <advance width="518"/>
  <unicode hex="002F"/>
  <outline>
    <contour>
      <point x="381" y="675" type="line"/>
      <point x="488" y="675" type="line"/>
      <point x="118" y="0" type="line"/>
      <point x="11" y="0" type="line"/>
    </contour>
  </outline>
</glyph>
<glyph name="zero" format="1">
  <advance width="640"/>
  <unicode hex="0030"/>
  <outline>
    <contour>
      <point x="296" y="-3" type="curve" smooth="yes"/>
      <point x="162" y="-3"/>
      <point x="67" y="147"/>
      <point x="67" y="317" type="curve" smooth="yes"/>
      <point x="67" y="503"/>
      <point x="177" y="669"/>
      <point x="317" y="669" type="curve" smooth="yes"/>
      <point x="451" y="669"/>
      <point x="545" y="520"/>
      <point x="545" y="348" type="curve" smooth="yes"/>
      <point x="545" y="160"/>
      <point x="433" y="-3"/>
    </contour>
    <contour>
      <point x="317" y="574" type="curve" smooth="yes"/>
      <point x="233" y="574"/>
      <point x="161" y="458"/>
      <point x="161" y="319" type="curve" smooth="yes"/>
      <point x="161" y="201"/>
      <point x="217" y="93"/>
      <point x="296" y="93" type="curve" smooth="yes"/>
      <point x="379" y="93"/>
      <point x="452" y="208"/>
      <point x="452" y="346" type="curve" smooth="yes"/>
      <point x="452" y="467"/>
      <point x="394" y="574"/>
    </contour>
  </outline>
</glyph>
<glyph name="one" format="1">
  <advance width="440"/>
  <unicode hex="0031"/>
  <outline>
    <contour>
      <point x="272" y="95" type="line"/>
      <point x="366" y="95" type="line"/>
      <point x="349" y="0" type="line"/>
      <point x="63" y="0" type="line"/>
      <point x="79" y="95" type="line"/>
      <point x="178" y="95" type="line"/>
      <point x="185" y="479" type="line"/>
      <point x="109" y="411" type="line"/>
      <point x="45" y="481" type="line"/>
      <point x="282" y="694" type="line"/>
    </contour>
  </outline>
</glyph>
<glyph name="two" format="1">
  <advance width="550"/>
  <unicode hex="0032"/>
  <outline>
    <contour>
      <point x="159" y="95" type="curve"/>
      <point x="473" y="95" type="line"/>
      <point x="456" y="0" type="line"/>
      <point x="61" y="0" type="line"/>
      <point x="61" y="47" type="line" smooth="yes"/>
      <point x="61" y="200"/>
      <point x="119" y="256"/>
      <point x="228" y="330" type="curve" smooth="yes"/>
      <point x="324" y="395"/>
      <point x="365" y="441"/>
      <point x="365" y="487" type="curve" smooth="yes"/>
      <point x="365" y="544"/>
      <point x="306" y="564"/>
      <point x="266" y="564" type="curve" smooth="yes"/>
      <point x="189" y="564"/>
      <point x="127" y="475"/>
      <point x="119" y="461" type="curve"/>
      <point x="53" y="537" type="line"/>
      <point x="81" y="574"/>
      <point x="157" y="658"/>
      <point x="266" y="658" type="curve" smooth="yes"/>
      <point x="415" y="658"/>
      <point x="460" y="556"/>
      <point x="460" y="487" type="curve" smooth="yes"/>
      <point x="460" y="386"/>
      <point x="370" y="310"/>
      <point x="280" y="251" type="curve" smooth="yes"/>
      <point x="209" y="204"/>
      <point x="169" y="169"/>
    </contour>
  </outline>
</glyph>
<glyph name="three" format="1">
  <advance width="575"/>
  <unicode hex="0033"/>
  <outline>
    <contour>
      <point x="470" y="509" type="curve" smooth="yes"/>
      <point x="470" y="447"/>
      <point x="429" y="403"/>
      <point x="386" y="374" type="curve"/>
      <point x="441" y="339"/>
      <point x="484" y="285"/>
      <point x="484" y="207" type="curve" smooth="yes"/>
      <point x="484" y="54"/>
      <point x="356" y="-4"/>
      <point x="274" y="-4" type="curve" smooth="yes"/>
      <point x="187" y="-4"/>
      <point x="93" y="46"/>
      <point x="58" y="156" type="curve"/>
      <point x="149" y="194" type="line"/>
      <point x="167" y="128"/>
      <point x="218" y="91"/>
      <point x="274" y="91" type="curve" smooth="yes"/>
      <point x="275" y="91"/>
      <point x="388" y="94"/>
      <point x="388" y="207" type="curve" smooth="yes"/>
      <point x="388" y="294"/>
      <point x="302" y="320"/>
      <point x="206" y="320" type="curve"/>
      <point x="202" y="413" type="line"/>
      <point x="310" y="419"/>
      <point x="373" y="459"/>
      <point x="373" y="509" type="curve" smooth="yes"/>
      <point x="373" y="539"/>
      <point x="334" y="572"/>
      <point x="269" y="572" type="curve" smooth="yes"/>
      <point x="211" y="572"/>
      <point x="153" y="520"/>
      <point x="141" y="508" type="curve"/>
      <point x="76" y="577" type="line"/>
      <point x="102" y="601"/>
      <point x="178" y="667"/>
      <point x="269" y="667" type="curve" smooth="yes"/>
      <point x="382" y="667"/>
      <point x="470" y="597"/>
    </contour>
  </outline>
</glyph>
<glyph name="nine" format="1">
  <advance width="572"/>
  <unicode hex="0039"/>
  <outline>
    <contour>
      <point x="183" y="-9" type="curve"/>
      <point x="153" y="78" type="line"/>
      <point x="235" y="111"/>
      <point x="303" y="167"/>
      <point x="342" y="231" type="curve"/>
      <point x="315" y="222"/>
      <point x="289" y="217"/>
      <point x="253" y="217" type="curve" smooth="yes"/>
      <point x="233" y="217"/>
      <point x="58" y="224"/>
      <point x="58" y="424" type="curve" smooth="yes"/>
      <point x="58" y="572"/>
      <point x="153" y="669"/>
      <point x="265" y="669" type="curve" smooth="yes"/>
      <point x="417" y="669"/>
      <point x="484" y="557"/>
      <point x="484" y="419" type="curve" smooth="yes"/>
      <point x="484" y="198"/>
      <point x="328" y="45"/>
    </contour>
    <contour>
      <point x="388" y="364" type="curve"/>
      <point x="391" y="382"/>
      <point x="392" y="401"/>
      <point x="392" y="419" type="curve" smooth="yes"/>
      <point x="392" y="548"/>
      <point x="322" y="576"/>
      <point x="263" y="576" type="curve" smooth="yes"/>
      <point x="232" y="576"/>
      <point x="151" y="548"/>
      <point x="151" y="424" type="curve" smooth="yes"/>
      <point x="151" y="319"/>
      <point x="230" y="311"/>
      <point x="253" y="311" type="curve" smooth="yes"/>
      <point x="322" y="311"/>
      <point x="369" y="346"/>
    </contour>
  </outline>
</glyph>
<glyph name="colon" format="1">
  <advance width="276"/>
  <unicode hex="003A"/>
  <outline>
    <contour>
      <point x="208" y="454" type="line"/>
      <point x="194" y="332" type="line"/>
      <point x="80" y="317" type="line"/>
      <point x="93" y="439" type="line"/>
    </contour>
    <contour>
      <point x="181" y="133" type="line"/>
      <point x="170" y="12" type="line"/>
      <point x="55" y="-4" type="line"/>
      <point x="69" y="118" type="line"/>
    </contour>
  </outline>
</glyph>
<glyph name="equal" format="1">
  <advance width="531"/>
  <unicode hex="003D"/>
  <outline>
    <contour>
      <point x="426" y="292" type="line"/>
      <point x="67" y="292" type="line"/>
      <point x="84" y="386" type="line"/>
      <point x="443" y="386" type="line"/>
    </contour>
    <contour>
      <point x="426" y="113" type="line"/>
      <point x="67" y="113" type="line"/>
      <point x="84" y="206" type="line"/>
      <point x="443" y="206" type="line"/>
    </contour>
  </outline>
</glyph>
<glyph name="greater" format="1">
  <advance width="594"/>
  <unicode hex="003E"/>
  <outline>
    <contour>
      <point x="114" y="-10" type="line"/>
      <point x="64" y="69" type="line"/>
      <point x="348" y="252" type="line"/>
      <point x="79" y="435" type="line"/>
      <point x="133" y="512" type="line"/>
      <point x="520" y="251" type="line"/>
    </contour>
  </outline>
</glyph>
<glyph name="question" format="1">
  <advance width="568"/>
  <unicode hex="003F"/>
  <outline>
    <contour>
      <point x="244" y="124" type="line"/>
      <point x="234" y="12" type="line"/>
      <point x="137" y="-5" type="line"/>
      <point x="146" y="107" type="line"/>
    </contour>
    <contour>
      <point x="266" y="694" type="curve" smooth="yes"/>
      <point x="400" y="694"/>
      <point x="480" y="614"/>
      <point x="480" y="489" type="curve" smooth="yes"/>
      <point x="480" y="390"/>
      <point x="411" y="333"/>
      <point x="363" y="290" type="curve" smooth="yes"/>
      <point x="206" y="149" type="line"/>
      <point x="158" y="235" type="line"/>
      <point x="301" y="362" type="line" smooth="yes"/>
      <point x="340" y="396"/>
      <point x="386" y="432"/>
      <point x="386" y="489" type="curve" smooth="yes"/>
      <point x="386" y="544"/>
      <point x="352" y="599"/>
      <point x="269" y="599" type="curve" smooth="yes"/>
      <point x="183" y="599"/>
      <point x="127" y="507"/>
      <point x="120" y="495" type="curve"/>
      <point x="49" y="566" type="line"/>
      <point x="74" y="603"/>
      <point x="157" y="694"/>
    </contour>
  </outline>
</glyph>
<glyph name="at" format="1">
  <advance width="854"/>
  <unicode hex="0040"/>
  <outline>
    <contour>
      <point x="416" y="7" type="curve" smooth="yes"/>
      <point x="497" y="7"/>
      <point x="548" y="42"/>
      <point x="580" y="61" type="curve"/>
      <point x="672" y="18" type="line"/>
      <point x="660" y="7"/>
      <point x="555" y="-86"/>
      <point x="416" y="-86" type="curve" smooth="yes"/>
      <point x="227" y="-86"/>
      <point x="71" y="66"/>
      <point x="71" y="252" type="curve" smooth="yes"/>
      <point x="71" y="455"/>
      <point x="223" y="607"/>
      <point x="424" y="607" type="curve" smooth="yes"/>
      <point x="607" y="607"/>
      <point x="750" y="467"/>
      <point x="750" y="282" type="curve" smooth="yes"/>
      <point x="750" y="174"/>
      <point x="689" y="85"/>
      <point x="582" y="85" type="curve"/>
      <point x="534" y="86"/>
      <point x="480" y="111"/>
      <point x="451" y="146" type="curve"/>
      <point x="424" y="118"/>
      <point x="391" y="98"/>
      <point x="349" y="98" type="curve" smooth="yes"/>
      <point x="274" y="98"/>
      <point x="222" y="149"/>
      <point x="222" y="238" type="curve" smooth="yes"/>
      <point x="222" y="340"/>
      <point x="297" y="435"/>
      <point x="399" y="435" type="curve" smooth="yes"/>
      <point x="436" y="435"/>
      <point x="467" y="431"/>
      <point x="513" y="397" type="curve"/>
      <point x="457" y="321" type="line"/>
      <point x="428" y="341"/>
      <point x="415" y="341"/>
      <point x="399" y="341" type="curve" smooth="yes"/>
      <point x="351" y="341"/>
      <point x="316" y="289"/>
      <point x="316" y="238" type="curve" smooth="yes"/>
      <point x="316" y="207"/>
      <point x="331" y="192"/>
      <point x="349" y="192" type="curve" smooth="yes"/>
      <point x="387" y="192"/>
      <point x="427" y="272"/>
      <point x="441" y="304" type="curve"/>
      <point x="527" y="272" type="line"/>
      <point x="519" y="245"/>
      <point x="519" y="238"/>
      <point x="519" y="229" type="curve" smooth="yes"/>
      <point x="519" y="202"/>
      <point x="543" y="180"/>
      <point x="583" y="180" type="curve" smooth="yes"/>
      <point x="633" y="180"/>
      <point x="656" y="226"/>
      <point x="656" y="282" type="curve" smooth="yes"/>
      <point x="656" y="397"/>
      <point x="577" y="512"/>
      <point x="424" y="512" type="curve" smooth="yes"/>
      <point x="295" y="512"/>
      <point x="166" y="423"/>
      <point x="166" y="252" type="curve" smooth="yes"/>
      <point x="166" y="92"/>
      <point x="310" y="7"/>
    </contour>
  </outline>
</glyph>
<glyph name="B" format="1">
  <advance width="628"/>
  <unicode hex="0042"/>
  <outline>
    <contour>
      <point x="61" y="0" type="line"/>
      <point x="61" y="681" type="line"/>
      <point x="281" y="681" type="line" smooth="yes"/>
      <point x="421" y="681"/>
      <point x="505" y="610"/>
      <point x="505" y="493" type="curve" smooth="yes"/>
      <point x="505" y="443"/>
      <point x="479" y="403"/>
      <point x="438" y="374" type="curve"/>
      <point x="498" y="355"/>
      <point x="561" y="293"/>
      <point x="561" y="212" type="curve" smooth="yes"/>
      <point x="561" y="20"/>
      <point x="270" y="0"/>
      <point x="147" y="0" type="curve" smooth="yes"/>
    </contour>
    <contour>
      <point x="158" y="309" type="line"/>
      <point x="158" y="96" type="line"/>
      <point x="160.197" y="95.9759"/>
      <point x="162.466" y="95.9634"/>
      <point x="164.802" y="95.9634" type="curve" smooth="yes"/>
      <point x="259.255" y="95.9634"/>
      <point x="464" y="116.366"/>
      <point x="464" y="212" type="curve" smooth="yes"/>
      <point x="464" y="294"/>
      <point x="364" y="309"/>
      <point x="306" y="309" type="curve" smooth="yes"/>
    </contour>
    <contour>
      <point x="158" y="584" type="line"/>
      <point x="158" y="405" type="line"/>
      <point x="265" y="405" type="line" smooth="yes"/>
      <point x="327" y="405"/>
      <point x="408" y="423"/>
      <point x="408" y="493" type="curve" smooth="yes"/>
      <point x="408" y="535"/>
      <point x="386" y="584"/>
      <point x="281" y="584" type="curve" smooth="yes"/>
    </contour>
  </outline>
</glyph>
<glyph name="F" format="1">
  <advance width="531"/>
  <unicode hex="0046"/>
  <outline>
    <contour>
      <point x="503" y="582" type="line"/>
      <point x="154" y="582" type="line"/>
      <point x="154" y="395" type="line"/>
      <point x="474" y="395" type="line"/>
      <point x="457" y="295" type="line"/>
      <point x="154" y="295" type="line"/>
      <point x="154" y="12" type="line"/>
      <point x="55" y="-5" type="line"/>
      <point x="55" y="681" type="line"/>
      <point x="521" y="681" type="line"/>
    </contour>
  </outline>
</glyph>
<glyph name="G" format="1">
  <advance width="770"/>
  <unicode hex="0047"/>
  <outline>
    <contour>
      <point x="686" y="299" type="curve"/>
      <point x="686" y="197" type="line"/>
      <point x="673" y="202"/>
      <point x="660" y="207"/>
      <point x="645" y="210" type="curve"/>
      <point x="626" y="142"/>
      <point x="561" y="-2"/>
      <point x="356" y="-2" type="curve" smooth="yes"/>
      <point x="181" y="-2"/>
      <point x="58" y="149"/>
      <point x="58" y="341" type="curve" smooth="yes"/>
      <point x="58" y="500"/>
      <point x="185" y="682"/>
      <point x="374" y="682" type="curve" smooth="yes"/>
      <point x="527" y="682"/>
      <point x="626" y="587"/>
      <point x="660" y="449" type="curve"/>
      <point x="565" y="430" type="line"/>
      <point x="541" y="524"/>
      <point x="477" y="586"/>
      <point x="374" y="586" type="curve" smooth="yes"/>
      <point x="220" y="586"/>
      <point x="155" y="424"/>
      <point x="155" y="341" type="curve" smooth="yes"/>
      <point x="155" y="220"/>
      <point x="224" y="95"/>
      <point x="356" y="95" type="curve" smooth="yes"/>
      <point x="451" y="95"/>
      <point x="517" y="141"/>
      <point x="547" y="220" type="curve"/>
      <point x="495" y="218"/>
      <point x="429" y="202"/>
      <point x="381" y="182" type="curve"/>
      <point x="381" y="288" type="line"/>
      <point x="437" y="306"/>
      <point x="501" y="316"/>
      <point x="557" y="316" type="curve" smooth="yes"/>
      <point x="596" y="316"/>
      <point x="641" y="310"/>
    </contour>
  </outline>
</glyph>
<glyph name="H" format="1">
  <advance width="709"/>
  <unicode hex="0048"/>
  <outline>
    <contour>
      <point x="525" y="668" type="line"/>
      <point x="624" y="686" type="line"/>
      <point x="624" y="25" type="line"/>
      <point x="525" y="-9" type="line"/>
      <point x="525" y="322" type="line"/>
      <point x="161" y="270" type="line"/>
      <point x="161" y="25" type="line"/>
      <point x="62" y="-9" type="line"/>
      <point x="62" y="668" type="line"/>
      <point x="161" y="686" type="line"/>
      <point x="161" y="370" type="line"/>
      <point x="525" y="422" type="line"/>
    </contour>
  </outline>
</glyph>
<glyph name="J" format="1">
  <advance width="495"/>
  <unicode hex="004A"/>
  <outline>
    <contour>
      <point x="173" y="679" type="line"/>
      <point x="463" y="679" type="line"/>
      <point x="463" y="579" type="line"/>
      <point x="416" y="579" type="line"/>
      <point x="416" y="174" type="line" smooth="yes"/>
      <point x="416" y="72"/>
      <point x="340" y="1"/>
      <point x="230" y="1" type="curve" smooth="yes"/>
      <point x="122" y="1"/>
      <point x="45" y="75"/>
      <point x="45" y="174" type="curve" smooth="yes"/>
      <point x="45" y="226" type="line"/>
      <point x="144" y="244" type="line"/>
      <point x="144" y="174" type="line" smooth="yes"/>
      <point x="144" y="129"/>
      <point x="179" y="95"/>
      <point x="230" y="95" type="curve" smooth="yes"/>
      <point x="283" y="95"/>
      <point x="317" y="129"/>
      <point x="317" y="174" type="curve" smooth="yes"/>
      <point x="317" y="579" type="line"/>
      <point x="173" y="579" type="line"/>
    </contour>
  </outline>
</glyph>
<glyph name="K" format="1">
  <advance width="603"/>
  <unicode hex="004B"/>
  <outline>
    <contour>
      <point x="547" y="68" type="line"/>
      <point x="487" y="-9" type="line"/>
      <point x="157" y="242" type="line"/>
      <point x="157" y="12" type="line"/>
      <point x="61" y="-5" type="line"/>
      <point x="61" y="668" type="line"/>
      <point x="157" y="686" type="line"/>
      <point x="157" y="435" type="line"/>
      <point x="460" y="689" type="line"/>
      <point x="523" y="616" type="line"/>
      <point x="191" y="337" type="line"/>
    </contour>
  </outline>
</glyph>
<glyph name="M" format="1">
  <advance width="891"/>
  <unicode hex="004D"/>
  <outline>
    <contour>
      <point x="237" y="446" type="line"/>
      <point x="145" y="12" type="line"/>
      <point x="45" y="-6" type="line"/>
      <point x="186" y="669" type="line"/>
      <point x="271" y="685" type="line"/>
      <point x="418" y="166" type="line"/>
      <point x="580" y="670" type="line"/>
      <point x="669" y="685" type="line"/>
      <point x="815" y="13" type="line"/>
      <point x="716" y="-4" type="line"/>
      <point x="616" y="467" type="line"/>
      <point x="470" y="11" type="line"/>
      <point x="365" y="-3" type="line"/>
    </contour>
  </outline>
</glyph>
<glyph name="P" format="1">
  <advance width="571"/>
  <unicode hex="0050"/>
  <outline>
    <contour>
      <point x="158" y="223" type="curve"/>
      <point x="158" y="12" type="line"/>
      <point x="60" y="-5" type="line"/>
      <point x="60" y="673" type="line"/>
      <point x="90" y="675"/>
      <point x="155" y="679"/>
      <point x="188" y="679" type="curve" smooth="yes"/>
      <point x="327" y="679"/>
      <point x="526" y="650"/>
      <point x="526" y="463" type="curve" smooth="yes"/>
      <point x="526" y="298"/>
      <point x="327" y="233"/>
    </contour>
    <contour>
      <point x="158" y="580" type="line"/>
      <point x="158" y="321" type="line"/>
      <point x="324" y="334"/>
      <point x="427" y="387"/>
      <point x="427" y="457" type="curve" smooth="yes"/>
      <point x="427" y="524"/>
      <point x="375" y="580"/>
      <point x="178" y="580" type="curve" smooth="yes"/>
    </contour>
  </outline>
</glyph>
<glyph name="Q" format="1">
  <advance width="747"/>
  <unicode hex="0051"/>
  <outline>
    <contour>
      <point x="572" y="114" type="curve"/>
      <point x="681" y="42" type="line"/>
      <point x="638" y="-42" type="line"/>
      <point x="498" y="48" type="line"/>
      <point x="449" y="17"/>
      <point x="393" y="-1"/>
      <point x="336" y="-1" type="curve" smooth="yes"/>
      <point x="172" y="-1"/>
      <point x="50" y="141"/>
      <point x="50" y="314" type="curve" smooth="yes"/>
      <point x="50" y="512"/>
      <point x="203" y="679"/>
      <point x="379" y="679" type="curve" smooth="yes"/>
      <point x="544" y="679"/>
      <point x="665" y="536"/>
      <point x="665" y="364" type="curve" smooth="yes"/>
      <point x="665" y="266"/>
      <point x="633" y="181"/>
    </contour>
    <contour>
      <point x="489" y="170" type="line"/>
      <point x="532" y="218"/>
      <point x="563" y="286"/>
      <point x="563" y="358" type="curve" smooth="yes"/>
      <point x="563" y="471"/>
      <point x="483" y="582"/>
      <point x="372" y="582" type="curve" smooth="yes"/>
      <point x="255" y="582"/>
      <point x="153" y="461"/>
      <point x="153" y="314" type="curve" smooth="yes"/>
      <point x="153" y="191"/>
      <point x="230" y="95"/>
      <point x="336" y="95" type="curve" smooth="yes"/>
      <point x="362" y="95"/>
      <point x="383" y="100"/>
      <point x="407" y="111" type="curve"/>
      <point x="305" y="175" type="line"/>
      <point x="395" y="230" type="line"/>
    </contour>
  </outline>
</glyph>
<glyph name="T" format="1">
  <advance width="548"/>
  <unicode hex="0054"/>
  <outline>
    <contour>
      <point x="208" y="-5" type="line"/>
      <point x="208" y="582" type="line"/>
      <point x="9" y="582" type="line"/>
      <point x="9" y="681" type="line"/>
      <point x="522" y="681" type="line"/>
      <point x="522" y="582" type="line"/>
      <point x="308" y="582" type="line"/>
      <point x="308" y="12" type="line"/>
    </contour>
  </outline>
</glyph>
<glyph name="V" format="1">
  <advance width="566"/>
  <unicode hex="0056"/>
  <outline>
    <contour>
      <point x="261" y="174" type="line"/>
      <point x="454" y="688" type="line"/>
      <point x="546" y="650" type="line"/>
      <point x="305" y="12" type="line"/>
      <point x="212" y="-3" type="line"/>
      <point x="2" y="652" type="line"/>
      <point x="96" y="687" type="line"/>
    </contour>
  </outline>
</glyph>
<glyph name="W" format="1">
  <advance width="904"/>
  <unicode hex="0057"/>
  <outline>
    <contour>
      <point x="871" y="686" type="line"/>
      <point x="642" y="12" type="line"/>
      <point x="552" y="-3" type="line"/>
      <point x="431" y="474" type="line"/>
      <point x="293" y="12" type="line"/>
      <point x="204" y="-3" type="line"/>
      <point x="8" y="667" type="line"/>
      <point x="104" y="685" type="line"/>
      <point x="247" y="198" type="line"/>
      <point x="294" y="353"/>
      <point x="343" y="517"/>
      <point x="388" y="669" type="curve"/>
      <point x="477" y="685" type="line"/>
      <point x="600" y="191" type="line"/>
      <point x="762" y="668" type="line"/>
    </contour>
  </outline>
</glyph>
<glyph name="Y" format="1">
  <advance width="654"/>
  <unicode hex="0059"/>
  <outline>
    <contour>
      <point x="324" y="318" type="line"/>
      <point x="537" y="677" type="line"/>
      <point x="650" y="677" type="line"/>
      <point x="248" y="0" type="line"/>
      <point x="135" y="0" type="line"/>
      <point x="266" y="223" type="line"/>
      <point x="2" y="677" type="line"/>
      <point x="114" y="677" type="line"/>
    </contour>
  </outline>
</glyph>
<glyph name="Z" format="1">
  <advance width="647"/>
  <unicode hex="005A"/>
  <outline>
    <contour>
      <point x="77" y="0" type="line"/>
      <point x="41" y="77" type="line"/>
      <point x="442" y="578" type="line"/>
      <point x="70" y="578" type="line"/>
      <point x="87" y="681" type="line"/>
      <point x="547" y="681" type="line"/>
      <point x="583" y="603" type="line"/>
      <point x="182" y="103" type="line"/>
      <point x="574" y="103" type="line"/>
      <point x="557" y="0" type="line"/>
    </contour>
  </outline>
</glyph>
<glyph name="bracketleft" format="1">
  <advance width="341"/>
  <unicode hex="005B"/>
  <outline>
    <contour>
      <point x="252" y="-113" type="line"/>
      <point x="58" y="-113" type="line"/>
      <point x="58" y="778" type="line"/>
      <point x="283" y="778" type="line"/>
      <point x="266" y="683" type="line"/>
      <point x="152" y="683" type="line"/>
      <point x="152" y="-18" type="line"/>
      <point x="270" y="-18" type="line"/>
    </contour>
  </outline>
</glyph>
<glyph name="bracketright" format="1">
  <advance width="341"/>
  <unicode hex="005D"/>
  <outline>
    <contour>
      <point x="79" y="778" type="line"/>
      <point x="274" y="778" type="line"/>
      <point x="274" y="-113" type="line"/>
      <point x="48" y="-113" type="line"/>
      <point x="65" y="-18" type="line"/>
      <point x="179" y="-18" type="line"/>
      <point x="179" y="683" type="line"/>
      <point x="62" y="683" type="line"/>
    </contour>
  </outline>
</glyph>
<glyph name="grave" format="1">
  <advance width="526"/>
  <unicode hex="0060"/>
  <outline>
    <contour>
      <point x="371" y="703" type="line"/>
      <point x="290" y="654" type="line"/>
      <point x="129" y="816" type="line"/>
      <point x="226" y="870" type="line"/>
    </contour>
  </outline>
</glyph>
<glyph name="d" format="1">
  <advance width="552"/>
  <unicode hex="0064"/>
  <outline>
    <contour>
      <point x="369" y="667" type="line"/>
      <point x="467" y="684" type="line"/>
      <point x="452" y="12" type="line"/>
      <point x="356" y="-5" type="line"/>
      <point x="356" y="47" type="line"/>
      <point x="322" y="23"/>
      <point x="283" y="5"/>
      <point x="226" y="5" type="curve" smooth="yes"/>
      <point x="104" y="5"/>
      <point x="48" y="118"/>
      <point x="48" y="228" type="curve" smooth="yes"/>
      <point x="48" y="316"/>
      <point x="76" y="496"/>
      <point x="270" y="496" type="curve" smooth="yes"/>
      <point x="300" y="496"/>
      <point x="334" y="488"/>
      <point x="365" y="479" type="curve"/>
    </contour>
    <contour>
      <point x="359" y="171" type="curve" smooth="yes"/>
      <point x="364" y="376" type="line"/>
      <point x="344" y="386"/>
      <point x="307" y="402"/>
      <point x="265" y="402" type="curve" smooth="yes"/>
      <point x="162" y="402"/>
      <point x="144" y="299"/>
      <point x="144" y="231" type="curve" smooth="yes"/>
      <point x="144" y="179"/>
      <point x="158" y="95"/>
      <point x="226" y="95" type="curve" smooth="yes"/>
      <point x="305" y="95"/>
      <point x="358" y="149"/>
    </contour>
  </outline>
</glyph>
<glyph name="f" format="1">
  <advance width="358"/>
  <unicode hex="0066"/>
  <outline>
    <contour>
      <point x="347" y="673" type="curve"/>
      <point x="308" y="582" type="line"/>
      <point x="304.352" y="582.079"/>
      <point x="300.806" y="582.119"/>
      <point x="297.36" y="582.119" type="curve" smooth="yes"/>
      <point x="213.896" y="582.119"/>
      <point x="188.881" y="558.66"/>
      <point x="186" y="502" type="curve"/>
      <point x="309" y="502" type="line"/>
      <point x="288" y="410" type="line"/>
      <point x="180" y="410" type="line"/>
      <point x="180" y="12" type="line"/>
      <point x="84" y="-5" type="line"/>
      <point x="84" y="410" type="line"/>
      <point x="2" y="410" type="line"/>
      <point x="18" y="502" type="line"/>
      <point x="85" y="502" type="line"/>
      <point x="91" y="630"/>
      <point x="155" y="677"/>
      <point x="285" y="677" type="curve" smooth="yes"/>
      <point x="296" y="677"/>
      <point x="307" y="677"/>
    </contour>
  </outline>
</glyph>
<glyph name="h" format="1">
  <advance width="530"/>
  <unicode hex="0068"/>
  <outline>
    <contour>
      <point x="158" y="201" type="curve" smooth="yes"/>
      <point x="158" y="12" type="line"/>
      <point x="61" y="-5" type="line"/>
      <point x="61" y="661" type="line"/>
      <point x="158" y="679" type="line"/>
      <point x="158" y="409" type="line"/>
      <point x="198" y="463"/>
      <point x="254" y="505"/>
      <point x="315" y="505" type="curve" smooth="yes"/>
      <point x="429" y="505"/>
      <point x="459" y="386"/>
      <point x="459" y="152" type="curve" smooth="yes"/>
      <point x="459" y="94"/>
      <point x="458" y="28"/>
      <point x="457" y="12" type="curve"/>
      <point x="361" y="-5" type="line"/>
      <point x="362" y="8"/>
      <point x="365" y="85"/>
      <point x="365" y="146" type="curve" smooth="yes"/>
      <point x="365" y="315"/>
      <point x="352" y="407"/>
      <point x="303" y="407" type="curve" smooth="yes"/>
      <point x="247" y="407"/>
      <point x="183" y="300"/>
      <point x="169" y="272" type="curve" smooth="yes"/>
      <point x="160" y="252"/>
      <point x="158" y="228"/>
    </contour>
  </outline>
</glyph>
<glyph name="i" format="1">
  <advance width="247"/>
  <unicode hex="0069"/>
  <outline>
    <contour>
      <point x="66" y="489" type="line"/>
      <point x="165" y="505" type="line"/>
      <point x="165" y="12" type="line"/>
      <point x="66" y="-5" type="line"/>
    </contour>
    <contour>
      <point x="170" y="677" type="line"/>
      <point x="162" y="555" type="line"/>
      <point x="64" y="538" type="line"/>
      <point x="73" y="660" type="line"/>
    </contour>
  </outline>
</glyph>
<glyph name="k" format="1">
  <advance width="520"/>
  <unicode hex="006B"/>
  <outline>
    <contour>
      <point x="465" y="484" type="line"/>
      <point x="424" y="430"/>
      <point x="340" y="336"/>
      <point x="292" y="291" type="curve"/>
      <point x="478" y="54" type="line"/>
      <point x="403" y="-11" type="line"/>
      <point x="337" y="87"/>
      <point x="263" y="183"/>
      <point x="219" y="233" type="curve"/>
      <point x="160" y="193" type="line"/>
      <point x="161" y="12" type="line"/>
      <point x="63" y="-5" type="line"/>
      <point x="62" y="662" type="line"/>
      <point x="159" y="679" type="line"/>
      <point x="160" y="300" type="line"/>
      <point x="223" y="354"/>
      <point x="325" y="458"/>
      <point x="388" y="539" type="curve"/>
    </contour>
  </outline>
</glyph>
<glyph name="l" format="1">
  <advance width="252"/>
  <unicode hex="006C"/>
  <outline>
    <contour>
      <point x="74" y="661" type="line"/>
      <point x="170" y="679" type="line"/>
      <point x="170" y="12" type="line"/>
      <point x="74" y="-5" type="line"/>
    </contour>
  </outline>
</glyph>
<glyph name="q" format="1">
  <advance width="549"/>
  <unicode hex="0071"/>
  <outline>
    <contour>
      <point x="322" y="497" type="curve" smooth="yes"/>
      <point x="336" y="497"/>
      <point x="352" y="496"/>
      <point x="367" y="494" type="curve"/>
      <point x="368" y="509" type="line"/>
      <point x="465" y="507" type="line"/>
      <point x="441" y="-166" type="line"/>
      <point x="345" y="-183" type="line"/>
      <point x="352" y="14" type="line"/>
      <point x="324" y="-3"/>
      <point x="303" y="-9"/>
      <point x="258" y="-9" type="curve" smooth="yes"/>
      <point x="137" y="-9"/>
      <point x="47" y="89"/>
      <point x="47" y="214" type="curve" smooth="yes"/>
      <point x="47" y="394"/>
      <point x="165" y="497"/>
    </contour>
    <contour>
      <point x="358" y="172" type="curve"/>
      <point x="366" y="402" type="line"/>
      <point x="350" y="404"/>
      <point x="335" y="405"/>
      <point x="322" y="405" type="curve" smooth="yes"/>
      <point x="215" y="405"/>
      <point x="139" y="339"/>
      <point x="139" y="214" type="curve" smooth="yes"/>
      <point x="139" y="138"/>
      <point x="190" y="84"/>
      <point x="257" y="84" type="curve" smooth="yes"/>
      <point x="316" y="84"/>
      <point x="355" y="116"/>
    </contour>
  </outline>
</glyph>
<glyph name="v" format="1">
  <advance width="473"/>
  <unicode hex="0076"/>
  <outline>
    <contour>
      <point x="450" y="473" type="line"/>
      <point x="271" y="15" type="line"/>
      <point x="189" y="-3" type="line"/>
      <point x="3" y="471" type="line"/>
      <point x="93" y="507" type="line"/>
      <point x="226" y="156" type="line"/>
      <point x="360" y="507" type="line"/>
    </contour>
  </outline>
</glyph>
<glyph name="x" format="1">
  <advance width="497"/>
  <unicode hex="0078"/>
  <outline>
    <contour>
      <point x="444" y="41" type="line"/>
      <point x="367" y="-12" type="line"/>
      <point x="231" y="180" type="line"/>
      <point x="71" y="-13" type="line"/>
      <point x="1" y="48" type="line"/>
      <point x="177" y="259" type="line"/>
      <point x="38" y="460" type="line"/>
      <point x="114" y="514" type="line"/>
      <point x="238" y="335" type="line"/>
      <point x="388" y="515" type="line"/>
      <point x="458" y="453" type="line"/>
      <point x="294" y="256" type="line"/>
    </contour>
  </outline>
</glyph>
<glyph name="braceleft" format="1">
  <advance width="400"/>
  <unicode hex="007B"/>
  <outline>
    <contour>
      <point x="64" y="310" type="curve"/>
      <point x="64" y="379" type="line"/>
      <point x="102" y="395"/>
      <point x="125" y="420"/>
      <point x="125" y="453" type="curve" smooth="yes"/>
      <point x="125" y="625" type="line" smooth="yes"/>
      <point x="125" y="746"/>
      <point x="258" y="781"/>
      <point x="328" y="782" type="curve"/>
      <point x="326" y="688" type="line"/>
      <point x="267" y="686"/>
      <point x="220" y="663"/>
      <point x="220" y="625" type="curve" smooth="yes"/>
      <point x="220" y="454" type="line" smooth="yes"/>
      <point x="220" y="408"/>
      <point x="204" y="380"/>
      <point x="167" y="341" type="curve"/>
      <point x="191" y="315"/>
      <point x="220" y="284"/>
      <point x="220" y="228" type="curve" smooth="yes"/>
      <point x="220" y="44" type="line" smooth="yes"/>
      <point x="220" y="10"/>
      <point x="256" y="-15"/>
      <point x="329" y="-21" type="curve"/>
      <point x="327" y="-115" type="line"/>
      <point x="257" y="-113"/>
      <point x="125" y="-77"/>
      <point x="125" y="44" type="curve" smooth="yes"/>
      <point x="125" y="236" type="line" smooth="yes"/>
      <point x="125" y="269"/>
      <point x="102" y="294"/>
    </contour>
  </outline>
</glyph>
<glyph name="bar" format="1">
  <advance width="281"/>
  <unicode hex="007C"/>
  <outline>
    <contour>
      <point x="182" y="-52" type="line"/>
      <point x="88" y="-69" type="line"/>
      <point x="88" y="719" type="line"/>
      <point x="182" y="737" type="line"/>
    </contour>
  </outline>
</glyph>
<glyph name="asciitilde" format="1">
  <advance width="671"/>
  <unicode hex="007E"/>
  <outline>
    <contour>
      <point x="492" y="357" type="curve"/>
      <point x="581" y="314" type="line"/>
      <point x="567" y="272"/>
      <point x="519" y="136"/>
      <point x="410" y="136" type="curve" smooth="yes"/>
      <point x="341" y="136"/>
      <point x="308" y="172"/>
      <point x="278" y="214" type="curve" smooth="yes"/>
      <point x="257" y="244"/>
      <point x="242" y="261"/>
      <point x="223" y="261" type="curve" smooth="yes"/>
      <point x="176" y="261"/>
      <point x="149" y="172"/>
      <point x="146" y="157" type="curve"/>
      <point x="60" y="200" type="line"/>
      <point x="81" y="275"/>
      <point x="135" y="366"/>
      <point x="223" y="366" type="curve" smooth="yes"/>
      <point x="291" y="366"/>
      <point x="325" y="330"/>
      <point x="354" y="289" type="curve" smooth="yes"/>
      <point x="376" y="259"/>
      <point x="390" y="241"/>
      <point x="410" y="241" type="curve" smooth="yes"/>
      <point x="439" y="241"/>
      <point x="473" y="285"/>
    </contour>
  </outline>
</glyph>
<glyph name="cent" format="1">
  <advance width="532"/>
  <unicode hex="00A2"/>
  <outline>
    <contour>
      <point x="297" y="90" type="curve"/>
      <point x="295" y="22" type="line"/>
      <point x="206" y="-9" type="line"/>
      <point x="208" y="98" type="line"/>
      <point x="102" y="135"/>
      <point x="48" y="216"/>
      <point x="48" y="308" type="curve" smooth="yes"/>
      <point x="48" y="416"/>
      <point x="109" y="539"/>
      <point x="220" y="580" type="curve"/>
      <point x="222" y="648" type="line"/>
      <point x="310" y="682" type="line"/>
      <point x="308" y="588" type="line"/>
      <point x="357" y="579"/>
      <point x="407" y="547"/>
      <point x="442" y="499" type="curve"/>
      <point x="372" y="430" type="line"/>
      <point x="350" y="466"/>
      <point x="329" y="487"/>
      <point x="307" y="493" type="curve"/>
      <point x="304" y="383"/>
      <point x="297" y="185"/>
      <point x="297" y="185" type="curve"/>
      <point x="335" y="196"/>
      <point x="376" y="231"/>
      <point x="398" y="274" type="curve"/>
      <point x="468" y="203" type="line"/>
      <point x="428" y="141"/>
      <point x="367" y="98"/>
    </contour>
    <contour>
      <point x="210" y="197" type="curve"/>
      <point x="218" y="476" type="line"/>
      <point x="161" y="433"/>
      <point x="140" y="349"/>
      <point x="140" y="311" type="curve" smooth="yes"/>
      <point x="140" y="266"/>
      <point x="163" y="223"/>
    </contour>
  </outline>
</glyph>
<glyph name="sterling" format="1">
  <advance width="790"/>
  <unicode hex="00A3"/>
  <outline>
    <contour>
      <point x="590" y="189" type="curve"/>
      <point x="683" y="177" type="line"/>
      <point x="662" y="11"/>
      <point x="560" y="-9"/>
      <point x="513" y="-9" type="curve" smooth="yes"/>
      <point x="455" y="-9"/>
      <point x="406" y="16"/>
      <point x="350" y="52" type="curve" smooth="yes"/>
      <point x="337" y="60"/>
      <point x="323" y="65"/>
      <point x="305" y="65" type="curve" smooth="yes"/>
      <point x="278" y="65"/>
      <point x="239" y="47"/>
      <point x="181" y="-11" type="curve"/>
      <point x="118" y="64" type="line"/>
      <point x="177" y="107"/>
      <point x="209" y="168"/>
      <point x="209" y="201" type="curve" smooth="yes"/>
      <point x="209" y="226"/>
      <point x="208" y="248"/>
      <point x="194" y="298" type="curve"/>
      <point x="69" y="298" type="line"/>
      <point x="87" y="392" type="line"/>
      <point x="172" y="392" type="line"/>
      <point x="169" y="416"/>
      <point x="169" y="439"/>
      <point x="169" y="461" type="curve" smooth="yes"/>
      <point x="169" y="624"/>
      <point x="253" y="706"/>
      <point x="404" y="706" type="curve" smooth="yes"/>
      <point x="575" y="706"/>
      <point x="626" y="552"/>
      <point x="633" y="471" type="curve"/>
      <point x="539" y="466" type="line"/>
      <point x="529" y="555"/>
      <point x="486" y="611"/>
      <point x="398" y="611" type="curve" smooth="yes"/>
      <point x="307" y="611"/>
      <point x="264" y="563"/>
      <point x="264" y="460" type="curve" smooth="yes"/>
      <point x="264" y="440"/>
      <point x="264" y="418"/>
      <point x="268" y="392" type="curve"/>
      <point x="513" y="392" type="line"/>
      <point x="496" y="298" type="line"/>
      <point x="289" y="298" type="line"/>
      <point x="301" y="253"/>
      <point x="304" y="226"/>
      <point x="304" y="210" type="curve" smooth="yes"/>
      <point x="304" y="196"/>
      <point x="302" y="178"/>
      <point x="298" y="159" type="curve"/>
      <point x="311" y="159" type="line" smooth="yes"/>
      <point x="346" y="159"/>
      <point x="379" y="147"/>
      <point x="408" y="126" type="curve"/>
      <point x="441" y="99"/>
      <point x="474" y="85"/>
      <point x="513" y="85" type="curve" smooth="yes"/>
      <point x="554" y="85"/>
      <point x="580" y="120"/>
    </contour>
  </outline>
</glyph>
<glyph name="yen" format="1">
  <advance width="611"/>
  <unicode hex="00A5"/>
  <outline>
    <contour>
      <point x="237" y="262" type="line"/>
      <point x="96" y="262" type="line"/>
      <point x="113" y="356" type="line"/>
      <point x="198" y="356" type="line"/>
      <point x="48" y="672" type="line"/>
      <point x="153" y="672" type="line"/>
      <point x="286" y="391" type="line"/>
      <point x="428" y="672" type="line"/>
      <point x="533" y="672" type="line"/>
      <point x="373" y="356" type="line"/>
      <point x="472" y="356" type="line"/>
      <point x="454" y="262" type="line"/>
      <point x="332" y="262" type="line"/>
      <point x="332" y="206" type="line"/>
      <point x="472" y="206" type="line"/>
      <point x="454" y="112" type="line"/>
      <point x="332" y="112" type="line"/>
      <point x="332" y="12" type="line"/>
      <point x="237" y="-5" type="line"/>
      <point x="237" y="112" type="line"/>
      <point x="96" y="112" type="line"/>
      <point x="113" y="206" type="line"/>
      <point x="237" y="206" type="line"/>
    </contour>
  </outline>
</glyph>
<glyph name="dieresis" format="1">
  <advance width="526"/>
  <unicode hex="00A8"/>
  <outline>
    <contour>
      <point x="232" y="652" type="line"/>
      <point x="220" y="531" type="line"/>
      <point x="105" y="516" type="line"/>
      <point x="119" y="638" type="line"/>
    </contour>
    <contour>
      <point x="397" y="652" type="line"/>
      <point x="385" y="531" type="line"/>
      <point x="271" y="516" type="line"/>
      <point x="284" y="638" type="line"/>
    </contour>
  </outline>
</glyph>
<glyph name="ordfeminine" format="1">
  <advance width="276"/>
  <unicode hex="00AA"/>
  <outline>
    <contour>
      <point x="267" y="626" type="curve"/>
      <point x="268" y="333" type="line"/>
      <point x="177" y="315" type="line"/>
      <point x="177" y="334" type="line"/>
      <point x="160" y="328"/>
      <point x="144" y="326"/>
      <point x="129" y="326" type="curve" smooth="yes"/>
      <point x="50" y="326"/>
      <point x="-4" y="388"/>
      <point x="-4" y="473" type="curve" smooth="yes"/>
      <point x="-4" y="571"/>
      <point x="60" y="661"/>
      <point x="155" y="661" type="curve" smooth="yes"/>
      <point x="180" y="661"/>
      <point x="228" y="651"/>
    </contour>
    <contour>
      <point x="178" y="568" type="line"/>
      <point x="170" y="570"/>
      <point x="165" y="571"/>
      <point x="155" y="571" type="curve" smooth="yes"/>
      <point x="100" y="571"/>
      <point x="87" y="497"/>
      <point x="87" y="474" type="curve" smooth="yes"/>
      <point x="87" y="438"/>
      <point x="103" y="416"/>
      <point x="127" y="416" type="curve" smooth="yes"/>
      <point x="144" y="416"/>
      <point x="163" y="426"/>
      <point x="176" y="433" type="curve"/>
    </contour>
  </outline>
</glyph>
<glyph name="uni00AD" format="1">
  <advance width="468"/>
  <unicode hex="00AD"/>
  <outline>
    <contour>
      <point x="390" y="301" type="line"/>
      <point x="372" y="206" type="line"/>
      <point x="60" y="206" type="line"/>
      <point x="77" y="301" type="line"/>
    </contour>
  </outline>
</glyph>
<glyph name="registered" format="1">
  <advance width="602"/>
  <unicode hex="00AE"/>
  <outline>
    <contour>
      <point x="277" y="177" type="curve" smooth="yes"/>
      <point x="132" y="177"/>
      <point x="12" y="298"/>
      <point x="12" y="447" type="curve" smooth="yes"/>
      <point x="12" y="596"/>
      <point x="132" y="718"/>
      <point x="277" y="718" type="curve" smooth="yes"/>
      <point x="423" y="718"/>
      <point x="542" y="596"/>
      <point x="542" y="447" type="curve" smooth="yes"/>
      <point x="542" y="298"/>
      <point x="423" y="177"/>
    </contour>
    <contour>
      <point x="277" y="648" type="curve" smooth="yes"/>
      <point x="170" y="648"/>
      <point x="82" y="558"/>
      <point x="82" y="447" type="curve" smooth="yes"/>
      <point x="82" y="336"/>
      <point x="170" y="247"/>
      <point x="277" y="247" type="curve" smooth="yes"/>
      <point x="385" y="247"/>
      <point x="472" y="336"/>
      <point x="472" y="447" type="curve" smooth="yes"/>
      <point x="472" y="558"/>
      <point x="385" y="648"/>
    </contour>
    <contour>
      <point x="338" y="425" type="curve"/>
      <point x="401" y="382" type="line"/>
      <point x="347" y="323" type="line"/>
      <point x="248" y="391" type="line"/>
      <point x="239" y="338" type="line"/>
      <point x="157" y="331" type="line"/>
      <point x="191" y="541" type="line" smooth="yes"/>
      <point x="195" y="566"/>
      <point x="196" y="583"/>
      <point x="282" y="583" type="curve" smooth="yes"/>
      <point x="362" y="583"/>
      <point x="407" y="551"/>
      <point x="407" y="500" type="curve" smooth="yes"/>
      <point x="407" y="462"/>
      <point x="374" y="438"/>
    </contour>
  </outline>
</glyph>
<glyph name="degree" format="1">
  <advance width="293"/>
  <unicode hex="00B0"/>
  <outline>
    <contour>
      <point x="140" y="455" type="curve" smooth="yes"/>
      <point x="61" y="455"/>
      <point x="-4" y="519"/>
      <point x="-4" y="598" type="curve" smooth="yes"/>
      <point x="-4" y="678"/>
      <point x="61" y="742"/>
      <point x="140" y="742" type="curve" smooth="yes"/>
      <point x="219" y="742"/>
      <point x="284" y="678"/>
      <point x="284" y="598" type="curve" smooth="yes"/>
      <point x="284" y="519"/>
      <point x="219" y="455"/>
    </contour>
    <contour>
      <point x="140" y="655" type="curve" smooth="yes"/>
      <point x="110" y="655"/>
      <point x="84" y="629"/>
      <point x="84" y="598" type="curve" smooth="yes"/>
      <point x="84" y="568"/>
      <point x="110" y="541"/>
      <point x="140" y="541" type="curve" smooth="yes"/>
      <point x="170" y="541"/>
      <point x="196" y="568"/>
      <point x="196" y="598" type="curve" smooth="yes"/>
      <point x="196" y="629"/>
      <point x="170" y="655"/>
    </contour>
  </outline>
</glyph>
<glyph name="acute" format="1">
  <advance width="526"/>
  <unicode hex="00B4"/>
  <outline>
    <contour>
      <point x="124" y="570" type="line"/>
      <point x="297" y="711" type="line"/>
      <point x="381" y="638" type="line"/>
      <point x="195" y="510" type="line"/>
    </contour>
  </outline>
</glyph>
<glyph name="mu" format="1">
  <advance width="541"/>
  <unicode hex="00B5"/>
  <outline>
    <contour>
      <point x="61" y="288" type="curve" smooth="yes"/>
      <point x="61" y="368"/>
      <point x="73" y="461"/>
      <point x="77" y="493" type="curve"/>
      <point x="177" y="510" type="line"/>
      <point x="174" y="489"/>
      <point x="156" y="393"/>
      <point x="156" y="317" type="curve" smooth="yes"/>
      <point x="156" y="134"/>
      <point x="174" y="85"/>
      <point x="223" y="85" type="curve" smooth="yes"/>
      <point x="278" y="85"/>
      <point x="336" y="125"/>
      <point x="352" y="144" type="curve"/>
      <point x="356" y="147"/>
      <point x="358" y="159"/>
      <point x="358" y="168" type="curve" smooth="yes"/>
      <point x="358" y="492" type="line"/>
      <point x="457" y="509" type="line"/>
      <point x="457" y="13" type="line"/>
      <point x="355" y="-3" type="line"/>
      <point x="355" y="37" type="line"/>
      <point x="321" y="15"/>
      <point x="272" y="-5"/>
      <point x="222" y="-5" type="curve" smooth="yes"/>
      <point x="207" y="-5"/>
      <point x="189" y="-4"/>
      <point x="175" y="0" type="curve"/>
      <point x="190" y="-163" type="line"/>
      <point x="95" y="-146" type="line"/>
      <point x="90" y="-111"/>
      <point x="61" y="195"/>
    </contour>
  </outline>
</glyph>
<glyph name="paragraph" format="1">
  <advance width="585"/>
  <unicode hex="00B6"/>
  <outline>
    <contour>
      <point x="365" y="666" type="line"/>
      <point x="344" y="665" type="line"/>
      <point x="344" y="648"/>
      <point x="345" y="625"/>
      <point x="345" y="597" type="curve" smooth="yes"/>
      <point x="345" y="470"/>
      <point x="334" y="234"/>
      <point x="275" y="-67" type="curve"/>
      <point x="188" y="-74" type="line"/>
      <point x="219" y="83"/>
      <point x="237" y="212"/>
      <point x="247" y="317" type="curve"/>
      <point x="155" y="321"/>
      <point x="36" y="347"/>
      <point x="36" y="501" type="curve" smooth="yes"/>
      <point x="36" y="655"/>
      <point x="204" y="737"/>
      <point x="349" y="763" type="curve"/>
    </contour>
    <contour>
      <point x="412" y="713" type="curve"/>
      <point x="495" y="720" type="line"/>
      <point x="496" y="712"/>
      <point x="498" y="655"/>
      <point x="498" y="603" type="curve" smooth="yes"/>
      <point x="498" y="479"/>
      <point x="488" y="239"/>
      <point x="428" y="-67" type="curve"/>
      <point x="340" y="-75" type="line"/>
      <point x="403" y="241"/>
      <point x="413" y="481"/>
      <point x="413" y="602" type="curve" smooth="yes"/>
      <point x="413" y="652"/>
      <point x="412" y="704"/>
    </contour>
  </outline>
</glyph>
<glyph name="periodcentered" format="1">
  <advance width="526"/>
  <unicode hex="00B7"/>
  <outline>
    <contour>
      <point x="314" y="321" type="line"/>
      <point x="303" y="200" type="line"/>
      <point x="188" y="185" type="line"/>
      <point x="202" y="306" type="line"/>
    </contour>
  </outline>
</glyph>
<glyph name="cedilla" format="1">
  <advance width="526"/>
  <unicode hex="00B8"/>
  <outline>
    <contour>
      <point x="184" y="-54" type="line"/>
      <point x="209" y="17" type="line"/>
      <point x="259" y="21" type="line"/>
      <point x="257" y="-33" type="line"/>
      <point x="310" y="-38"/>
      <point x="348" y="-60"/>
      <point x="348" y="-115" type="curve" smooth="yes"/>
      <point x="348" y="-167"/>
      <point x="305" y="-196"/>
      <point x="253" y="-196" type="curve" smooth="yes"/>
      <point x="222" y="-196"/>
      <point x="200" y="-186"/>
      <point x="177" y="-157" type="curve"/>
      <point x="221" y="-123" type="line"/>
      <point x="227" y="-132"/>
      <point x="239" y="-139"/>
      <point x="253" y="-139" type="curve" smooth="yes"/>
      <point x="269" y="-139"/>
      <point x="281" y="-130"/>
      <point x="281" y="-115" type="curve" smooth="yes"/>
      <point x="281" y="-99"/>
      <point x="269" y="-90"/>
      <point x="249" y="-90" type="curve" smooth="yes"/>
      <point x="242" y="-90"/>
      <point x="231" y="-93"/>
      <point x="226" y="-98" type="curve"/>
    </contour>
  </outline>
</glyph>
<glyph name="questiondown" format="1">
  <advance width="527"/>
  <unicode hex="00BF"/>
  <outline>
    <contour>
      <point x="236" y="569" type="line"/>
      <point x="246" y="681" type="line"/>
      <point x="343" y="698" type="line"/>
      <point x="334" y="586" type="line"/>
    </contour>
    <contour>
      <point x="214" y="-1" type="curve" smooth="yes"/>
      <point x="80" y="-1"/>
      <point x="0" y="79"/>
      <point x="0" y="204" type="curve" smooth="yes"/>
      <point x="0" y="303"/>
      <point x="69" y="360"/>
      <point x="117" y="403" type="curve" smooth="yes"/>
      <point x="274" y="544" type="line"/>
      <point x="322" y="458" type="line"/>
      <point x="179" y="331" type="line" smooth="yes"/>
      <point x="140" y="297"/>
      <point x="94" y="261"/>
      <point x="94" y="204" type="curve" smooth="yes"/>
      <point x="94" y="149"/>
      <point x="128" y="94"/>
      <point x="211" y="94" type="curve" smooth="yes"/>
      <point x="297" y="94"/>
      <point x="353" y="186"/>
      <point x="360" y="198" type="curve"/>
      <point x="431" y="127" type="line"/>
      <point x="406" y="90"/>
      <point x="323" y="-1"/>
    </contour>
  </outline>
</glyph>
<glyph name="Acircumflex" format="1">
  <advance width="649"/>
  <unicode hex="00C2"/>
  <outline>
    <contour>
      <point x="223" y="690" type="line"/>
      <point x="163" y="756" type="line"/>
      <point x="337" y="895" type="line"/>
      <point x="489" y="751" type="line"/>
      <point x="423" y="691" type="line"/>
      <point x="331" y="773" type="line"/>
    </contour>
    <contour>
      <point x="375" y="684" type="line"/>
      <point x="585" y="45" type="line"/>
      <point x="501" y="-12" type="line"/>
      <point x="417" y="240" type="line"/>
      <point x="204" y="195" type="line"/>
      <point x="129" y="-8" type="line"/>
      <point x="42" y="36" type="line"/>
      <point x="93" y="171" type="line"/>
      <point x="70" y="168" type="line"/>
      <point x="53" y="264" type="line"/>
      <point x="133" y="279" type="line"/>
      <point x="277" y="666" type="line"/>
    </contour>
    <contour>
      <point x="244" y="303" type="line"/>
      <point x="387" y="334" type="line"/>
      <point x="325" y="518" type="line"/>
    </contour>
  </outline>
</glyph>
<glyph name="Igrave" format="1">
  <advance width="463"/>
  <unicode hex="00CC"/>
  <outline>
    <contour>
      <point x="339" y="750" type="line"/>
      <point x="256" y="700" type="line"/>
      <point x="91" y="856" type="line"/>
      <point x="191" y="912" type="line"/>
    </contour>
    <contour>
      <point x="382" y="582" type="line"/>
      <point x="276" y="582" type="line"/>
      <point x="276" y="99" type="line"/>
      <point x="400" y="99" type="line"/>
      <point x="382" y="0" type="line"/>
      <point x="48" y="0" type="line"/>
      <point x="65" y="99" type="line"/>
      <point x="177" y="99" type="line"/>
      <point x="177" y="582" type="line"/>
      <point x="48" y="582" type="line"/>
      <point x="65" y="681" type="line"/>
      <point x="400" y="681" type="line"/>
    </contour>
  </outline>
</glyph>
<glyph name="Eth" format="1">
  <advance width="702"/>
  <unicode hex="00D0"/>
  <outline>
    <contour>
      <point x="115" y="7" type="curve"/>
      <point x="115" y="271" type="line"/>
      <point x="18" y="271" type="line"/>
      <point x="35" y="373" type="line"/>
      <point x="115" y="373" type="line"/>
      <point x="115" y="680" type="line"/>
      <point x="162" y="680" type="line" smooth="yes"/>
      <point x="272" y="680"/>
      <point x="361" y="656"/>
      <point x="419" y="630" type="curve"/>
      <point x="542" y="567"/>
      <point x="619" y="451"/>
      <point x="619" y="304" type="curve" smooth="yes"/>
      <point x="619" y="101"/>
      <point x="493" y="-14"/>
      <point x="270" y="-14" type="curve" smooth="yes"/>
      <point x="234" y="-14"/>
      <point x="166" y="-7"/>
    </contour>
    <contour>
      <point x="440" y="123" type="curve" smooth="yes"/>
      <point x="495" y="158"/>
      <point x="522" y="219"/>
      <point x="522" y="304" type="curve" smooth="yes"/>
      <point x="522" y="414"/>
      <point x="471" y="496"/>
      <point x="376" y="541" type="curve"/>
      <point x="318" y="566"/>
      <point x="260" y="581"/>
      <point x="212" y="583" type="curve"/>
      <point x="212" y="373" type="line"/>
      <point x="319" y="373" type="line"/>
      <point x="302" y="271" type="line"/>
      <point x="212" y="271" type="line"/>
      <point x="212" y="86" type="line"/>
      <point x="228" y="84"/>
      <point x="250" y="83"/>
      <point x="270" y="83" type="curve" smooth="yes"/>
      <point x="319" y="83"/>
      <point x="389" y="89"/>
    </contour>
  </outline>
</glyph>
<glyph name="Ntilde" format="1">
  <advance width="641"/>
  <unicode hex="00D1"/>
  <outline>
    <contour>
      <point x="463" y="668" type="line"/>
      <point x="559" y="686" type="line"/>
      <point x="559" y="16" type="line"/>
      <point x="465" y="-3" type="line"/>
      <point x="158" y="489" type="line"/>
      <point x="158" y="15" type="line"/>
      <point x="62" y="-4" type="line"/>
      <point x="61" y="660" type="line"/>
      <point x="149" y="685" type="line"/>
      <point x="463" y="184" type="line"/>
    </contour>
    <contour>
      <point x="443" y="870" type="curve"/>
      <point x="510" y="838" type="line"/>
      <point x="499" y="807"/>
      <point x="465" y="705"/>
      <point x="364" y="705" type="curve" smooth="yes"/>
      <point x="332" y="705"/>
      <point x="305" y="722"/>
      <point x="283" y="753" type="curve" smooth="yes"/>
      <point x="267" y="776"/>
      <point x="256" y="788"/>
      <point x="241" y="788" type="curve" smooth="yes"/>
      <point x="206" y="788"/>
      <point x="186" y="732"/>
      <point x="184" y="720" type="curve"/>
      <point x="119" y="753" type="line"/>
      <point x="135" y="809"/>
      <point x="175" y="877"/>
      <point x="253" y="877" type="curve" smooth="yes"/>
      <point x="292" y="877"/>
      <point x="318" y="860"/>
      <point x="340" y="829" type="curve" smooth="yes"/>
      <point x="356" y="807"/>
      <point x="367" y="793"/>
      <point x="382" y="793" type="curve" smooth="yes"/>
      <point x="403" y="793"/>
      <point x="429" y="816"/>
    </contour>
  </outline>
</glyph>
<glyph name="Otilde" format="1">
  <advance width="686"/>
  <unicode hex="00D5"/>
  <outline>
    <contour>
      <point x="312" y="0" type="curve" smooth="yes"/>
      <point x="163" y="0"/>
      <point x="57" y="146"/>
      <point x="57" y="317" type="curve" smooth="yes"/>
      <point x="57" y="516"/>
      <point x="194" y="684"/>
      <point x="351" y="684" type="curve" smooth="yes"/>
      <point x="498" y="684"/>
      <point x="607" y="540"/>
      <point x="607" y="367" type="curve" smooth="yes"/>
      <point x="607" y="168"/>
      <point x="470" y="0"/>
    </contour>
    <contour>
      <point x="345" y="589" type="curve" smooth="yes"/>
      <point x="242" y="589"/>
      <point x="153" y="468"/>
      <point x="153" y="317" type="curve" smooth="yes"/>
      <point x="153" y="196"/>
      <point x="220" y="95"/>
      <point x="312" y="95" type="curve" smooth="yes"/>
      <point x="415" y="95"/>
      <point x="511" y="218"/>
      <point x="511" y="363" type="curve" smooth="yes"/>
      <point x="511" y="477"/>
      <point x="442" y="589"/>
    </contour>
    <contour>
      <point x="481" y="870" type="curve"/>
      <point x="548" y="838" type="line"/>
      <point x="537" y="807"/>
      <point x="503" y="705"/>
      <point x="402" y="705" type="curve" smooth="yes"/>
      <point x="370" y="705"/>
      <point x="343" y="722"/>
      <point x="321" y="753" type="curve" smooth="yes"/>
      <point x="305" y="776"/>
      <point x="294" y="788"/>
      <point x="279" y="788" type="curve" smooth="yes"/>
      <point x="244" y="788"/>
      <point x="224" y="732"/>
      <point x="222" y="720" type="curve"/>
      <point x="157" y="753" type="line"/>
      <point x="173" y="809"/>
      <point x="213" y="877"/>
      <point x="291" y="877" type="curve" smooth="yes"/>
      <point x="330" y="877"/>
      <point x="356" y="860"/>
      <point x="378" y="829" type="curve" smooth="yes"/>
      <point x="394" y="807"/>
      <point x="405" y="793"/>
      <point x="420" y="793" type="curve" smooth="yes"/>
      <point x="441" y="793"/>
      <point x="467" y="816"/>
    </contour>
  </outline>
</glyph>
<glyph name="Thorn" format="1">
  <advance width="532"/>
  <unicode hex="00DE"/>
  <outline>
    <contour>
      <point x="59" y="670" type="line"/>
      <point x="157" y="691" type="line"/>
      <point x="157" y="583" type="line"/>
      <point x="295" y="581"/>
      <point x="489" y="557"/>
      <point x="489" y="375" type="curve" smooth="yes"/>
      <point x="489" y="196"/>
      <point x="298" y="146"/>
      <point x="155" y="135" type="curve"/>
      <point x="155" y="16" type="line"/>
      <point x="59" y="-6" type="line"/>
    </contour>
    <contour>
      <point x="156" y="234" type="line"/>
      <point x="294" y="245"/>
      <point x="389" y="293"/>
      <point x="389" y="375" type="curve" smooth="yes"/>
      <point x="389" y="448"/>
      <point x="288" y="481"/>
      <point x="157" y="486" type="curve"/>
    </contour>
  </outline>
</glyph>
<glyph name="germandbls" format="1">
  <advance width="551"/>
  <unicode hex="00DF"/>
  <outline>
    <contour>
      <point x="429" y="459" type="curve" smooth="yes"/>
      <point x="429" y="423"/>
      <point x="413" y="379"/>
      <point x="388" y="360" type="curve"/>
      <point x="457" y="332"/>
      <point x="506" y="271"/>
      <point x="506" y="182" type="curve" smooth="yes"/>
      <point x="506" y="73"/>
      <point x="426" y="-22"/>
      <point x="314" y="-22" type="curve" smooth="yes"/>
      <point x="280" y="-22"/>
      <point x="238" y="-14"/>
      <point x="194" y="13" type="curve"/>
      <point x="238" y="95" type="line"/>
      <point x="263" y="78"/>
      <point x="291" y="71"/>
      <point x="309" y="71" type="curve" smooth="yes"/>
      <point x="368" y="71"/>
      <point x="413" y="121"/>
      <point x="413" y="181" type="curve" smooth="yes"/>
      <point x="413" y="236"/>
      <point x="370" y="291"/>
      <point x="307" y="291" type="curve" smooth="yes"/>
      <point x="292" y="291"/>
      <point x="259" y="287"/>
      <point x="206" y="276" type="curve"/>
      <point x="233" y="375" type="line"/>
      <point x="313" y="386"/>
      <point x="336" y="423"/>
      <point x="336" y="457" type="curve" smooth="yes"/>
      <point x="336" y="499"/>
      <point x="296" y="535"/>
      <point x="254" y="535" type="curve" smooth="yes"/>
      <point x="211" y="535"/>
      <point x="170" y="499"/>
      <point x="170" y="457" type="curve" smooth="yes"/>
      <point x="170" y="33" type="line"/>
      <point x="78" y="-14" type="line"/>
      <point x="78" y="457" type="line" smooth="yes"/>
      <point x="78" y="551"/>
      <point x="159" y="627"/>
      <point x="254" y="627" type="curve" smooth="yes"/>
      <point x="347" y="627"/>
      <point x="429" y="553"/>
    </contour>
  </outline>
</glyph>
<glyph name="ccedilla" format="1">
  <advance width="533"/>
  <unicode hex="00E7"/>
  <outline>
    <contour>
      <point x="194" y="-54" type="line"/>
      <point x="215" y="6" type="line"/>
      <point x="122" y="30"/>
      <point x="48" y="115"/>
      <point x="48" y="219" type="curve" smooth="yes"/>
      <point x="48" y="331"/>
      <point x="137" y="502"/>
      <point x="274" y="502" type="curve" smooth="yes"/>
      <point x="339" y="502"/>
      <point x="398" y="470"/>
      <point x="442" y="411" type="curve"/>
      <point x="372" y="342" type="line"/>
      <point x="346" y="386"/>
      <point x="310" y="409"/>
      <point x="276" y="409" type="curve" smooth="yes"/>
      <point x="198" y="409"/>
      <point x="142" y="295"/>
      <point x="142" y="221" type="curve" smooth="yes"/>
      <point x="142" y="117.281"/>
      <point x="230.54" y="92.8792"/>
      <point x="271.218" y="92.8792" type="curve" smooth="yes"/>
      <point x="272.896" y="92.8792"/>
      <point x="274.494" y="92.9207"/>
      <point x="276" y="93" type="curve" smooth="yes"/>
      <point x="324" y="95"/>
      <point x="369" y="131"/>
      <point x="398" y="186" type="curve"/>
      <point x="470" y="114" type="line"/>
      <point x="427" y="47"/>
      <point x="357" y="3"/>
      <point x="279" y="0" type="curve" smooth="yes"/>
      <point x="268" y="0" type="line"/>
      <point x="267" y="-33" type="line"/>
      <point x="320" y="-38"/>
      <point x="358" y="-60"/>
      <point x="358" y="-115" type="curve" smooth="yes"/>
      <point x="358" y="-167"/>
      <point x="315" y="-196"/>
      <point x="263" y="-196" type="curve" smooth="yes"/>
      <point x="232" y="-196"/>
      <point x="210" y="-186"/>
      <point x="187" y="-157" type="curve"/>
      <point x="231" y="-123" type="line"/>
      <point x="237" y="-132"/>
      <point x="249" y="-139"/>
      <point x="263" y="-139" type="curve" smooth="yes"/>
      <point x="279" y="-139"/>
      <point x="291" y="-130"/>
      <point x="291" y="-115" type="curve" smooth="yes"/>
      <point x="291" y="-99"/>
      <point x="279" y="-90"/>
      <point x="259" y="-90" type="curve" smooth="yes"/>
      <point x="252" y="-90"/>
      <point x="241" y="-93"/>
      <point x="236" y="-98" type="curve"/>
    </contour>
  </outline>
</glyph>
<glyph name="eacute" format="1">
  <advance width="553"/>
  <unicode hex="00E9"/>
  <outline>
    <contour>
      <point x="142" y="600" type="line"/>
      <point x="315" y="731" type="line"/>
      <point x="399" y="658" type="line"/>
      <point x="213" y="540" type="line"/>
    </contour>
    <contour>
      <point x="291" y="0" type="curve" smooth="yes"/>
      <point x="156" y="0"/>
      <point x="48" y="113"/>
      <point x="48" y="251" type="curve" smooth="yes"/>
      <point x="48" y="388"/>
      <point x="155" y="502"/>
      <point x="291" y="502" type="curve" smooth="yes"/>
      <point x="382" y="502"/>
      <point x="460" y="426"/>
      <point x="486" y="335" type="curve"/>
      <point x="168" y="158" type="line"/>
      <point x="195" y="122"/>
      <point x="242" y="92"/>
      <point x="291" y="92" type="curve" smooth="yes"/>
      <point x="332" y="92"/>
      <point x="374" y="115"/>
      <point x="413" y="156" type="curve"/>
      <point x="480" y="93" type="line"/>
      <point x="423" y="33"/>
      <point x="355" y="0"/>
    </contour>
    <contour>
      <point x="140" y="247" type="curve"/>
      <point x="365" y="375" type="line"/>
      <point x="346" y="396"/>
      <point x="317" y="410"/>
      <point x="291" y="410" type="curve" smooth="yes"/>
      <point x="201" y="410"/>
      <point x="140" y="334"/>
    </contour>
  </outline>
</glyph>
<glyph name="igrave" format="1">
  <advance width="271"/>
  <unicode hex="00EC"/>
  <outline>
    <contour>
      <point x="234" y="579" type="line"/>
      <point x="153" y="530" type="line"/>
      <point x="-8" y="682" type="line"/>
      <point x="89" y="737" type="line"/>
    </contour>
    <contour>
      <point x="76" y="489" type="line"/>
      <point x="176" y="505" type="line"/>
      <point x="176" y="12" type="line"/>
      <point x="76" y="-5" type="line"/>
    </contour>
  </outline>
</glyph>
<glyph name="ntilde" format="1">
  <advance width="562"/>
  <unicode hex="00F1"/>
  <outline>
    <contour>
      <point x="419" y="701" type="curve"/>
      <point x="486" y="669" type="line"/>
      <point x="475" y="638"/>
      <point x="441" y="536"/>
      <point x="340" y="536" type="curve" smooth="yes"/>
      <point x="308" y="536"/>
      <point x="281" y="553"/>
      <point x="259" y="584" type="curve" smooth="yes"/>
      <point x="243" y="607"/>
      <point x="232" y="619"/>
      <point x="217" y="619" type="curve" smooth="yes"/>
      <point x="182" y="619"/>
      <point x="162" y="563"/>
      <point x="160" y="551" type="curve"/>
      <point x="95" y="584" type="line"/>
      <point x="111" y="640"/>
      <point x="151" y="708"/>
      <point x="229" y="708" type="curve" smooth="yes"/>
      <point x="268" y="708"/>
      <point x="294" y="691"/>
      <point x="316" y="660" type="curve" smooth="yes"/>
      <point x="332" y="638"/>
      <point x="343" y="624"/>
      <point x="358" y="624" type="curve" smooth="yes"/>
      <point x="379" y="624"/>
      <point x="405" y="647"/>
    </contour>
    <contour>
      <point x="381" y="-5" type="line"/>
      <point x="381" y="157" type="line" smooth="yes"/>
      <point x="381" y="245"/>
      <point x="381" y="309"/>
      <point x="370" y="352" type="curve" smooth="yes"/>
      <point x="362" y="384"/>
      <point x="345" y="406"/>
      <point x="320" y="406" type="curve" smooth="yes"/>
      <point x="288" y="406"/>
      <point x="247" y="394"/>
      <point x="205" y="319" type="curve"/>
      <point x="178" y="266"/>
      <point x="158" y="193"/>
      <point x="158" y="135" type="curve" smooth="yes"/>
      <point x="157" y="13" type="line"/>
      <point x="62" y="-5" type="line"/>
      <point x="62" y="489" type="line"/>
      <point x="158" y="507" type="line"/>
      <point x="158" y="408" type="line"/>
      <point x="197" y="464"/>
      <point x="256" y="501"/>
      <point x="322" y="501" type="curve" smooth="yes"/>
      <point x="395" y="501"/>
      <point x="441" y="463"/>
      <point x="460" y="386" type="curve" smooth="yes"/>
      <point x="474" y="326"/>
      <point x="474" y="249"/>
      <point x="475" y="127" type="curve" smooth="yes"/>
      <point x="476" y="15" type="line"/>
    </contour>
  </outline>
</glyph>
<glyph name="divide" format="1">
  <advance width="433"/>
  <unicode hex="00F7"/>
  <outline>
    <contour>
      <point x="268" y="431" type="line"/>
      <point x="258" y="336" type="line"/>
      <point x="159" y="326" type="line"/>
      <point x="170" y="419" type="line"/>
    </contour>
    <contour>
      <point x="254" y="194" type="line"/>
      <point x="244" y="99" type="line"/>
      <point x="145" y="87" type="line"/>
      <point x="156" y="182" type="line"/>
    </contour>
    <contour>
      <point x="43" y="218" type="line"/>
      <point x="61" y="301" type="line"/>
      <point x="371" y="301" type="line"/>
      <point x="353" y="218" type="line"/>
    </contour>
  </outline>
</glyph>
<glyph name="thorn" format="1">
  <advance width="554"/>
  <unicode hex="00FE"/>
  <outline>
    <contour>
      <point x="301" y="490" type="curve" smooth="yes"/>
      <point x="439" y="490"/>
      <point x="483" y="371"/>
      <point x="483" y="266" type="curve" smooth="yes"/>
      <point x="483" y="213"/>
      <point x="475" y="0"/>
      <point x="261" y="0" type="curve" smooth="yes"/>
      <point x="225" y="0"/>
      <point x="187" y="7"/>
      <point x="158" y="15" type="curve"/>
      <point x="158" y="-173" type="line"/>
      <point x="62" y="-156" type="line"/>
      <point x="62" y="660" type="line"/>
      <point x="158" y="678" type="line"/>
      <point x="158" y="447" type="line"/>
      <point x="194" y="472"/>
      <point x="245" y="490"/>
    </contour>
    <contour>
      <point x="254" y="95" type="curve" smooth="yes"/>
      <point x="352" y="95"/>
      <point x="389" y="164"/>
      <point x="389" y="266" type="curve" smooth="yes"/>
      <point x="389" y="313"/>
      <point x="372" y="394"/>
      <point x="304" y="394" type="curve" smooth="yes"/>
      <point x="220" y="394"/>
      <point x="158" y="346"/>
      <point x="158" y="286" type="curve" smooth="yes"/>
      <point x="158" y="111" type="line"/>
      <point x="179" y="104"/>
      <point x="217" y="95"/>
    </contour>
  </outline>
</glyph>
<glyph name="Aogonek" format="1">
  <advance width="663"/>
  <unicode hex="0104"/>
  <outline>
    <contour>
      <point x="585" y="45" type="line"/>
      <point x="466" y="-34" type="line" smooth="yes"/>
      <point x="448" y="-46"/>
      <point x="425" y="-60"/>
      <point x="425" y="-86" type="curve" smooth="yes"/>
      <point x="425" y="-100"/>
      <point x="438" y="-112"/>
      <point x="453" y="-112" type="curve" smooth="yes"/>
      <point x="474" y="-112"/>
      <point x="496" y="-98"/>
      <point x="524" y="-75" type="curve"/>
      <point x="575" y="-131" type="line"/>
      <point x="549" y="-164"/>
      <point x="498" y="-196"/>
      <point x="453" y="-196" type="curve" smooth="yes"/>
      <point x="385" y="-196"/>
      <point x="334" y="-161"/>
      <point x="334" y="-94" type="curve" smooth="yes"/>
      <point x="334" y="-28"/>
      <point x="387" y="3"/>
      <point x="434" y="30" type="curve" smooth="yes"/>
      <point x="478" y="55" type="line"/>
      <point x="417" y="240" type="line"/>
      <point x="204" y="195" type="line"/>
      <point x="129" y="-8" type="line"/>
      <point x="42" y="36" type="line"/>
      <point x="93" y="171" type="line"/>
      <point x="70" y="168" type="line"/>
      <point x="53" y="264" type="line"/>
      <point x="133" y="279" type="line"/>
      <point x="277" y="666" type="line"/>
      <point x="375" y="684" type="line"/>
    </contour>
    <contour>
      <point x="244" y="303" type="line"/>
      <point x="387" y="334" type="line"/>
      <point x="325" y="518" type="line"/>
    </contour>
  </outline>
</glyph>
<glyph name="Cacute" format="1">
  <advance width="657"/>
  <unicode hex="0106"/>
  <outline>
    <contour>
      <point x="222" y="772" type="line"/>
      <point x="399" y="906" type="line"/>
      <point x="485" y="831" type="line"/>
      <point x="295" y="710" type="line"/>
    </contour>
    <contour>
      <point x="335" y="-1" type="curve" smooth="yes"/>
      <point x="179" y="-1"/>
      <point x="48" y="127"/>
      <point x="48" y="294" type="curve" smooth="yes"/>
      <point x="48" y="454"/>
      <point x="167" y="681"/>
      <point x="346" y="681" type="curve" smooth="yes"/>
      <point x="386" y="681"/>
      <point x="426" y="667"/>
      <point x="460" y="651" type="curve"/>
      <point x="460" y="665" type="line"/>
      <point x="549" y="665" type="line"/>
      <point x="549" y="502" type="line"/>
      <point x="460" y="502" type="line"/>
      <point x="460" y="539" type="line"/>
      <point x="438" y="561"/>
      <point x="400" y="585"/>
      <point x="341" y="585" type="curve" smooth="yes"/>
      <point x="232" y="585"/>
      <point x="143" y="411"/>
      <point x="143" y="296" type="curve" smooth="yes"/>
      <point x="143" y="186"/>
      <point x="229" y="95"/>
      <point x="335" y="95" type="curve" smooth="yes"/>
      <point x="414" y="95"/>
      <point x="482" y="140"/>
      <point x="523" y="221" type="curve"/>
      <point x="595" y="149" type="line"/>
      <point x="538" y="56"/>
      <point x="440" y="-1"/>
    </contour>
  </outline>
</glyph>
<glyph name="cacute" format="1">
  <advance width="533"/>
  <unicode hex="0107"/>
  <outline>
    <contour>
      <point x="159" y="600" type="line"/>
      <point x="332" y="731" type="line"/>
      <point x="416" y="658" type="line"/>
      <point x="230" y="540" type="line"/>
    </contour>
    <contour>
      <point x="276" y="93" type="curve" smooth="yes"/>
      <point x="324" y="95"/>
      <point x="369" y="131"/>
      <point x="398" y="186" type="curve"/>
      <point x="470" y="114" type="line"/>
      <point x="427" y="47"/>
      <point x="357" y="3"/>
      <point x="279" y="0" type="curve"/>
      <point x="275.505" y="-0.173287"/>
      <point x="272.02" y="-0.258992"/>
      <point x="268.546" y="-0.258992" type="curve" smooth="yes"/>
      <point x="151.738" y="-0.258992"/>
      <point x="48" y="96.639"/>
      <point x="48" y="219" type="curve" smooth="yes"/>
      <point x="48" y="331"/>
      <point x="137" y="502"/>
      <point x="274" y="502" type="curve" smooth="yes"/>
      <point x="339" y="502"/>
      <point x="398" y="470"/>
      <point x="442" y="411" type="curve"/>
      <point x="372" y="342" type="line"/>
      <point x="346" y="386"/>
      <point x="310" y="409"/>
      <point x="276" y="409" type="curve" smooth="yes"/>
      <point x="198" y="409"/>
      <point x="142" y="295"/>
      <point x="142" y="221" type="curve" smooth="yes"/>
      <point x="142" y="117.281"/>
      <point x="230.54" y="92.8792"/>
      <point x="271.218" y="92.8792" type="curve" smooth="yes"/>
      <point x="272.896" y="92.8792"/>
      <point x="274.494" y="92.9207"/>
    </contour>
  </outline>
</glyph>
<glyph name="Dcaron" format="1">
  <advance width="642"/>
  <unicode hex="010E"/>
  <outline>
    <contour>
      <point x="386" y="897" type="line"/>
      <point x="445" y="824" type="line"/>
      <point x="271" y="701" type="line"/>
      <point x="120" y="830" type="line"/>
      <point x="185" y="897" type="line"/>
      <point x="276" y="812" type="line"/>
    </contour>
    <contour>
      <point x="61" y="7" type="curve"/>
      <point x="61" y="680" type="line"/>
      <point x="108" y="680" type="line" smooth="yes"/>
      <point x="218" y="680"/>
      <point x="307" y="656"/>
      <point x="365" y="630" type="curve"/>
      <point x="488" y="567"/>
      <point x="565" y="451"/>
      <point x="565" y="304" type="curve" smooth="yes"/>
      <point x="565" y="101"/>
      <point x="439" y="-14"/>
      <point x="216" y="-14" type="curve" smooth="yes"/>
      <point x="180" y="-14"/>
      <point x="112" y="-7"/>
    </contour>
    <contour>
      <point x="386" y="123" type="curve" smooth="yes"/>
      <point x="441" y="158"/>
      <point x="468" y="219"/>
      <point x="468" y="304" type="curve" smooth="yes"/>
      <point x="468" y="414"/>
      <point x="417" y="496"/>
      <point x="322" y="541" type="curve"/>
      <point x="264" y="566"/>
      <point x="206" y="581"/>
      <point x="158" y="583" type="curve"/>
      <point x="158" y="86" type="line"/>
      <point x="174" y="84"/>
      <point x="196" y="83"/>
      <point x="216" y="83" type="curve" smooth="yes"/>
      <point x="265" y="83"/>
      <point x="335" y="89"/>
    </contour>
  </outline>
</glyph>
<glyph name="dcroat" format="1">
  <advance width="576"/>
  <unicode hex="0111"/>
  <outline>
    <contour>
      <point x="369" y="667" type="line"/>
      <point x="462" y="684" type="line"/>
      <point x="460" y="606" type="line"/>
      <point x="563" y="606" type="line"/>
      <point x="545" y="523" type="line"/>
      <point x="458" y="523" type="line"/>
      <point x="447" y="12" type="line"/>
      <point x="356" y="-5" type="line"/>
      <point x="356" y="47" type="line"/>
      <point x="322" y="23"/>
      <point x="283" y="5"/>
      <point x="226" y="5" type="curve" smooth="yes"/>
      <point x="104" y="5"/>
      <point x="48" y="113"/>
      <point x="48" y="223" type="curve" smooth="yes"/>
      <point x="48" y="311"/>
      <point x="76" y="486"/>
      <point x="270" y="486" type="curve" smooth="yes"/>
      <point x="300" y="486"/>
      <point x="334" y="478"/>
      <point x="365" y="469" type="curve"/>
      <point x="366" y="523" type="line"/>
      <point x="275" y="523" type="line"/>
      <point x="292" y="606" type="line"/>
      <point x="367" y="606" type="line"/>
    </contour>
    <contour>
      <point x="359" y="171" type="curve" smooth="yes"/>
      <point x="364" y="366" type="line"/>
      <point x="344" y="376"/>
      <point x="307" y="392"/>
      <point x="265" y="392" type="curve" smooth="yes"/>
      <point x="162" y="392"/>
      <point x="144" y="294"/>
      <point x="144" y="226" type="curve" smooth="yes"/>
      <point x="144" y="174"/>
      <point x="158" y="95"/>
      <point x="226" y="95" type="curve" smooth="yes"/>
      <point x="305" y="95"/>
      <point x="358" y="149"/>
    </contour>
  </outline>
</glyph>
<glyph name="Eogonek" format="1">
  <advance width="637"/>
  <unicode hex="0118"/>
  <outline>
    <contour>
      <point x="535" y="0" type="line"/>
      <point x="472" y="-34" type="line" smooth="yes"/>
      <point x="454" y="-44"/>
      <point x="431" y="-60"/>
      <point x="431" y="-86" type="curve" smooth="yes"/>
      <point x="431" y="-100"/>
      <point x="444" y="-112"/>
      <point x="459" y="-112" type="curve" smooth="yes"/>
      <point x="480" y="-112"/>
      <point x="502" y="-98"/>
      <point x="530" y="-75" type="curve"/>
      <point x="583" y="-131" type="line"/>
      <point x="557" y="-164"/>
      <point x="504" y="-196"/>
      <point x="459" y="-196" type="curve" smooth="yes"/>
      <point x="391" y="-196"/>
      <point x="340" y="-161"/>
      <point x="340" y="-94" type="curve" smooth="yes"/>
      <point x="340" y="-50"/>
      <point x="370" y="-22"/>
      <point x="399" y="0" type="curve"/>
      <point x="61" y="0" type="line"/>
      <point x="61" y="681" type="line"/>
      <point x="560" y="681" type="line"/>
      <point x="543" y="582" type="line"/>
      <point x="160" y="582" type="line"/>
      <point x="160" y="402" type="line"/>
      <point x="526" y="402" type="line"/>
      <point x="497" y="304" type="line"/>
      <point x="160" y="304" type="line"/>
      <point x="160" y="99" type="line"/>
      <point x="570" y="99" type="line"/>
    </contour>
  </outline>
</glyph>
<glyph name="gcircumflex" format="1">
  <advance width="548"/>
  <unicode hex="011D"/>
  <outline>
    <contour>
      <point x="464" y="512" type="line"/>
      <point x="453" y="39" type="line" smooth="yes"/>
      <point x="450" y="-94"/>
      <point x="375" y="-168"/>
      <point x="246" y="-168" type="curve" smooth="yes"/>
      <point x="202" y="-168"/>
      <point x="145" y="-159"/>
      <point x="105" y="-150" type="curve"/>
      <point x="125" y="-56" type="line"/>
      <point x="157" y="-64"/>
      <point x="206" y="-72"/>
      <point x="246" y="-72" type="curve" smooth="yes"/>
      <point x="342" y="-72"/>
      <point x="355" y="9"/>
      <point x="356" y="42" type="curve"/>
      <point x="326" y="19"/>
      <point x="290" y="10"/>
      <point x="251" y="10" type="curve" smooth="yes"/>
      <point x="135" y="10"/>
      <point x="48" y="108"/>
      <point x="48" y="245" type="curve" smooth="yes"/>
      <point x="48" y="373"/>
      <point x="142" y="501"/>
      <point x="286" y="501" type="curve" smooth="yes"/>
      <point x="319" y="501"/>
      <point x="342" y="497"/>
      <point x="366" y="487" type="curve"/>
      <point x="366" y="497" type="line"/>
    </contour>
    <contour>
      <point x="362" y="386" type="line"/>
      <point x="344" y="397"/>
      <point x="317" y="406"/>
      <point x="291" y="406" type="curve" smooth="yes"/>
      <point x="203" y="406"/>
      <point x="138" y="332"/>
      <point x="138" y="243" type="curve" smooth="yes"/>
      <point x="138" y="189"/>
      <point x="170" y="104"/>
      <point x="246" y="104" type="curve" smooth="yes"/>
      <point x="299" y="105"/>
      <point x="362" y="136"/>
      <point x="362" y="266" type="curve" smooth="yes"/>
    </contour>
    <contour>
      <point x="184" y="520" type="line"/>
      <point x="125" y="585" type="line"/>
      <point x="296" y="720" type="line"/>
      <point x="444" y="580" type="line"/>
      <point x="380" y="521" type="line"/>
      <point x="290" y="602" type="line"/>
    </contour>
  </outline>
</glyph>
<glyph name="Hcircumflex" format="1">
  <advance width="709"/>
  <unicode hex="0124"/>
  <outline>
    <contour>
      <point x="525" y="668" type="line"/>
      <point x="624" y="686" type="line"/>
      <point x="624" y="25" type="line"/>
      <point x="525" y="-9" type="line"/>
      <point x="525" y="322" type="line"/>
      <point x="161" y="270" type="line"/>
      <point x="161" y="25" type="line"/>
      <point x="62" y="-9" type="line"/>
      <point x="62" y="668" type="line"/>
      <point x="161" y="686" type="line"/>
      <point x="161" y="370" type="line"/>
      <point x="525" y="422" type="line"/>
    </contour>
    <contour>
      <point x="245" y="690" type="line"/>
      <point x="185" y="756" type="line"/>
      <point x="359" y="895" type="line"/>
      <point x="511" y="751" type="line"/>
      <point x="445" y="691" type="line"/>
      <point x="353" y="773" type="line"/>
    </contour>
  </outline>
</glyph>
<glyph name="Jcircumflex" format="1">
  <advance width="495"/>
  <unicode hex="0134"/>
  <outline>
    <contour>
      <point x="173" y="679" type="line"/>
      <point x="463" y="679" type="line"/>
      <point x="463" y="579" type="line"/>
      <point x="416" y="579" type="line"/>
      <point x="416" y="174" type="line" smooth="yes"/>
      <point x="416" y="72"/>
      <point x="340" y="1"/>
      <point x="230" y="1" type="curve" smooth="yes"/>
      <point x="122" y="1"/>
      <point x="45" y="75"/>
      <point x="45" y="174" type="curve" smooth="yes"/>
      <point x="45" y="226" type="line"/>
      <point x="144" y="244" type="line"/>
      <point x="144" y="174" type="line" smooth="yes"/>
      <point x="144" y="129"/>
      <point x="179" y="95"/>
      <point x="230" y="95" type="curve" smooth="yes"/>
      <point x="283" y="95"/>
      <point x="317" y="129"/>
      <point x="317" y="174" type="curve" smooth="yes"/>
      <point x="317" y="579" type="line"/>
      <point x="173" y="579" type="line"/>
    </contour>
    <contour>
      <point x="223" y="690" type="line"/>
      <point x="163" y="756" type="line"/>
      <point x="337" y="895" type="line"/>
      <point x="489" y="751" type="line"/>
      <point x="423" y="691" type="line"/>
      <point x="331" y="773" type="line"/>
    </contour>
  </outline>
</glyph>
<glyph name="jcircumflex" format="1">
  <advance width="339"/>
  <unicode hex="0135"/>
  <outline>
    <contour>
      <point x="-50" y="30" type="curve"/>
      <point x="46" y="50" type="line"/>
      <point x="61" y="13"/>
      <point x="101" y="-72"/>
      <point x="132" y="-72" type="curve" smooth="yes"/>
      <point x="158" y="-72"/>
      <point x="168" y="-31"/>
      <point x="168" y="18" type="curve" smooth="yes"/>
      <point x="168" y="34"/>
      <point x="166" y="260"/>
      <point x="162" y="499" type="curve"/>
      <point x="259" y="517" type="line"/>
      <point x="263" y="275"/>
      <point x="266" y="38"/>
      <point x="266" y="23" type="curve" smooth="yes"/>
      <point x="266" y="-52"/>
      <point x="232" y="-164"/>
      <point x="129" y="-164" type="curve" smooth="yes"/>
      <point x="24" y="-164"/>
      <point x="-42" y="11"/>
    </contour>
    <contour>
      <point x="109" y="520" type="line"/>
      <point x="50" y="585" type="line"/>
      <point x="221" y="720" type="line"/>
      <point x="369" y="580" type="line"/>
      <point x="305" y="521" type="line"/>
      <point x="215" y="602" type="line"/>
    </contour>
  </outline>
</glyph>
<glyph name="Lacute" format="1">
  <advance width="513"/>
  <unicode hex="0139"/>
  <outline>
    <contour>
      <point x="91" y="772" type="line"/>
      <point x="268" y="906" type="line"/>
      <point x="354" y="831" type="line"/>
      <point x="164" y="710" type="line"/>
    </contour>
    <contour>
      <point x="59" y="-2" type="line"/>
      <point x="59" y="665" type="line"/>
      <point x="158" y="683" type="line"/>
      <point x="158" y="104" type="line"/>
      <point x="475" y="128" type="line"/>
      <point x="480" y="29" type="line"/>
    </contour>
  </outline>
</glyph>
<glyph name="Lcaron" format="1">
  <advance width="558"/>
  <unicode hex="013D"/>
  <outline>
    <contour>
      <point x="102" y="-2" type="line"/>
      <point x="102" y="665" type="line"/>
      <point x="201" y="683" type="line"/>
      <point x="201" y="104" type="line"/>
      <point x="517" y="128" type="line"/>
      <point x="523" y="29" type="line"/>
    </contour>
    <contour>
      <point x="317" y="897" type="line"/>
      <point x="376" y="824" type="line"/>
      <point x="202" y="701" type="line"/>
      <point x="51" y="825" type="line"/>
      <point x="116" y="897" type="line"/>
      <point x="207" y="812" type="line"/>
    </contour>
  </outline>
</glyph>
<glyph name="Nacute" format="1">
  <advance width="641"/>
  <unicode hex="0143"/>
  <outline>
    <contour>
      <point x="180" y="772" type="line"/>
      <point x="357" y="906" type="line"/>
      <point x="444" y="831" type="line"/>
      <point x="254" y="710" type="line"/>
    </contour>
    <contour>
      <point x="463" y="668" type="line"/>
      <point x="559" y="686" type="line"/>
      <point x="559" y="16" type="line"/>
      <point x="465" y="-3" type="line"/>
      <point x="158" y="489" type="line"/>
      <point x="158" y="15" type="line"/>
      <point x="62" y="-4" type="line"/>
      <point x="61" y="660" type="line"/>
      <point x="149" y="685" type="line"/>
      <point x="463" y="184" type="line"/>
    </contour>
  </outline>
</glyph>
<glyph name="Ncaron" format="1">
  <advance width="641"/>
  <unicode hex="0147"/>
  <outline>
    <contour>
      <point x="424" y="897" type="line"/>
      <point x="483" y="824" type="line"/>
      <point x="309" y="701" type="line"/>
      <point x="157" y="830" type="line"/>
      <point x="222" y="897" type="line"/>
      <point x="313" y="812" type="line"/>
    </contour>
    <contour>
      <point x="463" y="668" type="line"/>
      <point x="559" y="686" type="line"/>
      <point x="559" y="16" type="line"/>
      <point x="465" y="-3" type="line"/>
      <point x="158" y="489" type="line"/>
      <point x="158" y="15" type="line"/>
      <point x="62" y="-4" type="line"/>
      <point x="61" y="660" type="line"/>
      <point x="149" y="685" type="line"/>
      <point x="463" y="184" type="line"/>
    </contour>
  </outline>
</glyph>
<glyph name="Ohungarumlaut" format="1">
  <advance width="686"/>
  <unicode hex="0150"/>
  <outline>
    <contour>
      <point x="119" y="772" type="line"/>
      <point x="296" y="906" type="line"/>
      <point x="372" y="831" type="line"/>
      <point x="192" y="710" type="line"/>
    </contour>
    <contour>
      <point x="338" y="772" type="line"/>
      <point x="515" y="906" type="line"/>
      <point x="592" y="831" type="line"/>
      <point x="401" y="710" type="line"/>
    </contour>
    <contour>
      <point x="312" y="0" type="curve" smooth="yes"/>
      <point x="163" y="0"/>
      <point x="57" y="146"/>
      <point x="57" y="317" type="curve" smooth="yes"/>
      <point x="57" y="516"/>
      <point x="194" y="684"/>
      <point x="351" y="684" type="curve" smooth="yes"/>
      <point x="498" y="684"/>
      <point x="607" y="540"/>
      <point x="607" y="367" type="curve" smooth="yes"/>
      <point x="607" y="168"/>
      <point x="470" y="0"/>
    </contour>
    <contour>
      <point x="345" y="589" type="curve" smooth="yes"/>
      <point x="242" y="589"/>
      <point x="153" y="468"/>
      <point x="153" y="317" type="curve" smooth="yes"/>
      <point x="153" y="196"/>
      <point x="220" y="95"/>
      <point x="312" y="95" type="curve" smooth="yes"/>
      <point x="415" y="95"/>
      <point x="511" y="218"/>
      <point x="511" y="363" type="curve" smooth="yes"/>
      <point x="511" y="477"/>
      <point x="442" y="589"/>
    </contour>
  </outline>
</glyph>
<glyph name="ohungarumlaut" format="1">
  <advance width="581"/>
  <unicode hex="0151"/>
  <outline>
    <contour>
      <point x="255" y="0" type="curve" smooth="yes"/>
      <point x="138" y="0"/>
      <point x="49" y="105"/>
      <point x="49" y="232" type="curve" smooth="yes"/>
      <point x="49" y="377"/>
      <point x="156" y="500"/>
      <point x="283" y="500" type="curve" smooth="yes"/>
      <point x="400" y="500"/>
      <point x="490" y="393"/>
      <point x="490" y="268" type="curve" smooth="yes"/>
      <point x="490" y="122"/>
      <point x="382" y="0"/>
    </contour>
    <contour>
      <point x="279" y="411" type="curve" smooth="yes"/>
      <point x="207" y="411"/>
      <point x="146" y="328"/>
      <point x="146" y="234" type="curve" smooth="yes"/>
      <point x="146" y="156"/>
      <point x="190" y="89"/>
      <point x="255" y="89" type="curve" smooth="yes"/>
      <point x="326" y="89"/>
      <point x="391" y="170"/>
      <point x="391" y="264" type="curve" smooth="yes"/>
      <point x="391" y="343"/>
      <point x="341" y="411"/>
    </contour>
    <contour>
      <point x="84" y="597" type="line"/>
      <point x="261" y="731" type="line"/>
      <point x="337" y="656" type="line"/>
      <point x="157" y="535" type="line"/>
    </contour>
    <contour>
      <point x="303" y="597" type="line"/>
      <point x="480" y="731" type="line"/>
      <point x="557" y="656" type="line"/>
      <point x="366" y="535" type="line"/>
    </contour>
  </outline>
</glyph>
<glyph name="OE" format="1">
  <advance width="1119"/>
  <unicode hex="0152"/>
  <outline>
    <contour>
      <point x="617" y="99" type="line"/>
      <point x="1027" y="99" type="line"/>
      <point x="992" y="0" type="line"/>
      <point x="518" y="0" type="line"/>
      <point x="518" y="99" type="line"/>
      <point x="466" y="38"/>
      <point x="394" y="0"/>
      <point x="320" y="0" type="curve" smooth="yes"/>
      <point x="171" y="0"/>
      <point x="64" y="146"/>
      <point x="64" y="317" type="curve" smooth="yes"/>
      <point x="64" y="516"/>
      <point x="201" y="684"/>
      <point x="359" y="684" type="curve" smooth="yes"/>
      <point x="417" y="684"/>
      <point x="473" y="663"/>
      <point x="518" y="619" type="curve"/>
      <point x="518" y="681" type="line"/>
      <point x="1017" y="681" type="line"/>
      <point x="1000" y="582" type="line"/>
      <point x="617" y="582" type="line"/>
      <point x="617" y="402" type="line"/>
      <point x="983" y="402" type="line"/>
      <point x="954" y="304" type="line"/>
      <point x="617" y="304" type="line"/>
    </contour>
    <contour>
      <point x="518" y="365" type="curve"/>
      <point x="517" y="478"/>
      <point x="448" y="589"/>
      <point x="352" y="589" type="curve" smooth="yes"/>
      <point x="250" y="589"/>
      <point x="160" y="468"/>
      <point x="160" y="317" type="curve" smooth="yes"/>
      <point x="160" y="196"/>
      <point x="227" y="95"/>
      <point x="320" y="95" type="curve" smooth="yes"/>
      <point x="419" y="95"/>
      <point x="507" y="199"/>
    </contour>
  </outline>
</glyph>
<glyph name="Racute" format="1">
  <advance width="620"/>
  <unicode hex="0154"/>
  <outline>
    <contour>
      <point x="134" y="772" type="line"/>
      <point x="311" y="906" type="line"/>
      <point x="398" y="831" type="line"/>
      <point x="207" y="710" type="line"/>
    </contour>
    <contour>
      <point x="160" y="587" type="line"/>
      <point x="160" y="322" type="line"/>
      <point x="324" y="331"/>
      <point x="435" y="387"/>
      <point x="435" y="461" type="curve" smooth="yes"/>
      <point x="435" y="529"/>
      <point x="378" y="587"/>
      <point x="175" y="587" type="curve" smooth="yes"/>
    </contour>
    <contour>
      <point x="281" y="224" type="curve" smooth="yes"/>
      <point x="269" y="230"/>
      <point x="249" y="232"/>
      <point x="232" y="232" type="curve" smooth="yes"/>
      <point x="215" y="232"/>
      <point x="185" y="229"/>
      <point x="159" y="225" type="curve"/>
      <point x="159" y="12" type="line"/>
      <point x="61" y="-5" type="line"/>
      <point x="61" y="678" type="line"/>
      <point x="99" y="683"/>
      <point x="153" y="686"/>
      <point x="185" y="687" type="curve"/>
      <point x="327" y="687"/>
      <point x="533" y="657"/>
      <point x="533" y="467" type="curve" smooth="yes"/>
      <point x="533" y="391"/>
      <point x="473" y="315"/>
      <point x="385" y="273" type="curve"/>
      <point x="435" y="233"/>
      <point x="501" y="163"/>
      <point x="560" y="52" type="curve"/>
      <point x="484" y="-13" type="line"/>
      <point x="403" y="143"/>
      <point x="325" y="202"/>
    </contour>
  </outline>
</glyph>
<glyph name="Scedilla" format="1">
  <advance width="625"/>
  <unicode hex="015E"/>
  <outline>
    <contour>
      <point x="303" y="308" type="curve" smooth="yes"/>
      <point x="204" y="334"/>
      <point x="89" y="391"/>
      <point x="89" y="496" type="curve" smooth="yes"/>
      <point x="89" y="647"/>
      <point x="225" y="681"/>
      <point x="330" y="681" type="curve" smooth="yes"/>
      <point x="424" y="681"/>
      <point x="545" y="646"/>
      <point x="545" y="525" type="curve" smooth="yes"/>
      <point x="545" y="518"/>
      <point x="545" y="511"/>
      <point x="541" y="488" type="curve"/>
      <point x="442" y="470" type="line"/>
      <point x="449" y="484"/>
      <point x="450" y="508"/>
      <point x="450" y="513" type="curve" smooth="yes"/>
      <point x="450" y="572"/>
      <point x="375" y="588"/>
      <point x="330" y="588" type="curve" smooth="yes"/>
      <point x="217" y="588"/>
      <point x="195" y="537"/>
      <point x="195" y="502" type="curve" smooth="yes"/>
      <point x="195" y="459"/>
      <point x="240" y="430"/>
      <point x="327" y="406" type="curve" smooth="yes"/>
      <point x="475" y="365"/>
      <point x="548" y="298"/>
      <point x="548" y="200" type="curve" smooth="yes"/>
      <point x="548" y="63"/>
      <point x="413" y="0"/>
      <point x="308" y="-1" type="curve"/>
      <point x="307" y="-33" type="line"/>
      <point x="360" y="-38"/>
      <point x="398" y="-60"/>
      <point x="398" y="-115" type="curve" smooth="yes"/>
      <point x="398" y="-167"/>
      <point x="355" y="-196"/>
      <point x="303" y="-196" type="curve" smooth="yes"/>
      <point x="272" y="-196"/>
      <point x="250" y="-186"/>
      <point x="227" y="-157" type="curve"/>
      <point x="271" y="-123" type="line"/>
      <point x="277" y="-132"/>
      <point x="289" y="-139"/>
      <point x="303" y="-139" type="curve" smooth="yes"/>
      <point x="319" y="-139"/>
      <point x="331" y="-130"/>
      <point x="331" y="-115" type="curve" smooth="yes"/>
      <point x="331" y="-99"/>
      <point x="319" y="-90"/>
      <point x="299" y="-90" type="curve" smooth="yes"/>
      <point x="292" y="-90"/>
      <point x="281" y="-93"/>
      <point x="276" y="-98" type="curve"/>
      <point x="234" y="-54" type="line"/>
      <point x="254" y="4" type="line"/>
      <point x="158" y="22"/>
      <point x="79" y="89"/>
      <point x="48" y="184" type="curve"/>
      <point x="152" y="200" type="line"/>
      <point x="178" y="128"/>
      <point x="248" y="95"/>
      <point x="306" y="95" type="curve" smooth="yes"/>
      <point x="381" y="95"/>
      <point x="442" y="136"/>
      <point x="442" y="199" type="curve" smooth="yes"/>
      <point x="442" y="229"/>
      <point x="434" y="273"/>
    </contour>
  </outline>
</glyph>
<glyph name="scaron" format="1">
  <advance width="486"/>
  <unicode hex="0161"/>
  <outline>
    <contour>
      <point x="353" y="732" type="line"/>
      <point x="411" y="657" type="line"/>
      <point x="241" y="532" type="line"/>
      <point x="92" y="662" type="line"/>
      <point x="156" y="732" type="line"/>
      <point x="245" y="649" type="line"/>
    </contour>
    <contour>
      <point x="230" y="219" type="curve" smooth="yes"/>
      <point x="155" y="239"/>
      <point x="71" y="275"/>
      <point x="71" y="365" type="curve" smooth="yes"/>
      <point x="71" y="481"/>
      <point x="177" y="505"/>
      <point x="254" y="505" type="curve" smooth="yes"/>
      <point x="314" y="505"/>
      <point x="416" y="484"/>
      <point x="416" y="384" type="curve" smooth="yes"/>
      <point x="416" y="376"/>
      <point x="416" y="369"/>
      <point x="412" y="347" type="curve"/>
      <point x="319" y="329" type="line"/>
      <point x="326" y="349"/>
      <point x="326" y="364"/>
      <point x="326" y="372" type="curve" smooth="yes"/>
      <point x="326" y="406"/>
      <point x="286" y="417"/>
      <point x="254" y="417" type="curve" smooth="yes"/>
      <point x="187" y="416"/>
      <point x="169" y="391"/>
      <point x="169" y="366" type="curve" smooth="yes"/>
      <point x="169" y="340"/>
      <point x="197" y="326"/>
      <point x="253" y="310" type="curve" smooth="yes"/>
      <point x="364" y="279"/>
      <point x="418" y="229"/>
      <point x="418" y="155" type="curve" smooth="yes"/>
      <point x="418" y="33"/>
      <point x="295" y="0"/>
      <point x="236" y="0" type="curve" smooth="yes"/>
      <point x="151" y="0"/>
      <point x="67" y="55"/>
      <point x="40" y="151" type="curve"/>
      <point x="134" y="167" type="line"/>
      <point x="150" y="116"/>
      <point x="194" y="91"/>
      <point x="236" y="91" type="curve" smooth="yes"/>
      <point x="289" y="91"/>
      <point x="322" y="116"/>
      <point x="322" y="146" type="curve" smooth="yes"/>
      <point x="322" y="186"/>
      <point x="281" y="205"/>
    </contour>
  </outline>
</glyph>
<glyph name="tcaron" format="1">
  <advance width="455"/>
  <unicode hex="0165"/>
  <outline>
    <contour>
      <point x="357" y="751" type="line"/>
      <point x="446" y="696" type="line"/>
      <point x="359" y="526" type="line"/>
      <point x="275" y="574" type="line"/>
      <point x="324" y="660" type="line"/>
      <point x="281" y="684" type="line"/>
    </contour>
    <contour>
      <point x="352" y="502" type="line"/>
      <point x="352" y="406" type="line"/>
      <point x="226" y="406" type="line"/>
      <point x="226" y="12" type="line"/>
      <point x="134" y="-5" type="line"/>
      <point x="134" y="406" type="line"/>
      <point x="8" y="406" type="line"/>
      <point x="8" y="502" type="line"/>
      <point x="134" y="502" type="line"/>
      <point x="134" y="644" type="line"/>
      <point x="226" y="660" type="line"/>
      <point x="226" y="502" type="line"/>
    </contour>
  </outline>
</glyph>
<glyph name="Ubreve" format="1">
  <advance width="710"/>
  <unicode hex="016C"/>
  <outline>
    <contour>
      <point x="343" y="0" type="curve" smooth="yes"/>
      <point x="103" y="0"/>
      <point x="63" y="194"/>
      <point x="63" y="451" type="curve" smooth="yes"/>
      <point x="63" y="516"/>
      <point x="65" y="640"/>
      <point x="66" y="668" type="curve"/>
      <point x="165" y="685" type="line"/>
      <point x="164" y="664"/>
      <point x="162" y="521"/>
      <point x="162" y="443" type="curve" smooth="yes"/>
      <point x="162" y="260"/>
      <point x="180" y="92"/>
      <point x="343" y="92" type="curve" smooth="yes"/>
      <point x="512" y="92"/>
      <point x="525" y="276"/>
      <point x="525" y="425" type="curve" smooth="yes"/>
      <point x="525" y="502"/>
      <point x="523" y="633"/>
      <point x="522" y="666" type="curve"/>
      <point x="621" y="685" type="line"/>
      <point x="622" y="662"/>
      <point x="624" y="536"/>
      <point x="624" y="467" type="curve" smooth="yes"/>
      <point x="624" y="240"/>
      <point x="603" y="0"/>
    </contour>
    <contour>
      <point x="343" y="806" type="curve" smooth="yes"/>
      <point x="389" y="806"/>
      <point x="419" y="829"/>
      <point x="440" y="886" type="curve"/>
      <point x="504" y="822" type="line"/>
      <point x="481" y="755"/>
      <point x="415" y="718"/>
      <point x="348" y="718" type="curve" smooth="yes"/>
      <point x="275" y="718"/>
      <point x="212" y="752"/>
      <point x="183" y="817" type="curve"/>
      <point x="243" y="878" type="line"/>
      <point x="281" y="809"/>
      <point x="316" y="806"/>
    </contour>
  </outline>
</glyph>
<glyph name="ubreve" format="1">
  <advance width="542"/>
  <unicode hex="016D"/>
  <outline>
    <contour>
      <point x="157" y="286" type="curve" smooth="yes"/>
      <point x="157" y="186"/>
      <point x="157" y="85"/>
      <point x="226" y="85" type="curve" smooth="yes"/>
      <point x="281" y="85"/>
      <point x="335" y="125"/>
      <point x="353" y="143" type="curve" smooth="yes"/>
      <point x="357" y="147"/>
      <point x="359" y="155"/>
      <point x="359" y="167" type="curve" smooth="yes"/>
      <point x="359" y="491" type="line"/>
      <point x="458" y="508" type="line"/>
      <point x="458" y="12" type="line"/>
      <point x="356" y="-4" type="line"/>
      <point x="356" y="36" type="line"/>
      <point x="322" y="14"/>
      <point x="273" y="-5"/>
      <point x="223" y="-5" type="curve" smooth="yes"/>
      <point x="62.9756" y="-5"/>
      <point x="61.9999" y="142.34"/>
      <point x="61.9999" y="280.873" type="curve" smooth="yes"/>
      <point x="61.9999" y="282.584"/>
      <point x="62" y="284.293"/>
      <point x="62" y="286" type="curve" smooth="yes"/>
      <point x="62" y="328"/>
      <point x="67" y="418"/>
      <point x="79" y="492" type="curve"/>
      <point x="178" y="509" type="line"/>
      <point x="175" y="488"/>
      <point x="157" y="359"/>
    </contour>
    <contour>
      <point x="271" y="626" type="curve" smooth="yes"/>
      <point x="317" y="626"/>
      <point x="347" y="649"/>
      <point x="368" y="706" type="curve"/>
      <point x="432" y="642" type="line"/>
      <point x="409" y="575"/>
      <point x="343" y="538"/>
      <point x="276" y="538" type="curve" smooth="yes"/>
      <point x="203" y="538"/>
      <point x="140" y="572"/>
      <point x="111" y="637" type="curve"/>
      <point x="171" y="698" type="line"/>
      <point x="209" y="629"/>
      <point x="244" y="626"/>
    </contour>
  </outline>
</glyph>
<glyph name="Uring" format="1">
  <advance width="710"/>
  <unicode hex="016E"/>
  <outline>
    <contour>
      <point x="343" y="0" type="curve" smooth="yes"/>
      <point x="103" y="0"/>
      <point x="63" y="194"/>
      <point x="63" y="451" type="curve" smooth="yes"/>
      <point x="63" y="516"/>
      <point x="65" y="640"/>
      <point x="66" y="668" type="curve"/>
      <point x="165" y="685" type="line"/>
      <point x="164" y="664"/>
      <point x="162" y="521"/>
      <point x="162" y="443" type="curve" smooth="yes"/>
      <point x="162" y="260"/>
      <point x="180" y="92"/>
      <point x="343" y="92" type="curve" smooth="yes"/>
      <point x="512" y="92"/>
      <point x="525" y="276"/>
      <point x="525" y="425" type="curve" smooth="yes"/>
      <point x="525" y="502"/>
      <point x="523" y="633"/>
      <point x="522" y="666" type="curve"/>
      <point x="621" y="685" type="line"/>
      <point x="622" y="662"/>
      <point x="624" y="536"/>
      <point x="624" y="467" type="curve" smooth="yes"/>
      <point x="624" y="240"/>
      <point x="603" y="0"/>
    </contour>
    <contour>
      <point x="344" y="702" type="curve" smooth="yes"/>
      <point x="268" y="702"/>
      <point x="215" y="752"/>
      <point x="215" y="815" type="curve" smooth="yes"/>
      <point x="215" y="886"/>
      <point x="281" y="942"/>
      <point x="363" y="942" type="curve" smooth="yes"/>
      <point x="442" y="942"/>
      <point x="492" y="887"/>
      <point x="492" y="828" type="curve" smooth="yes"/>
      <point x="492" y="744"/>
      <point x="414" y="702"/>
    </contour>
    <contour>
      <point x="360" y="857" type="curve" smooth="yes"/>
      <point x="337" y="857"/>
      <point x="301" y="842"/>
      <point x="301" y="815" type="curve" smooth="yes"/>
      <point x="301" y="798"/>
      <point x="321" y="786"/>
      <point x="346" y="786" type="curve" smooth="yes"/>
      <point x="374" y="786"/>
      <point x="408" y="803"/>
      <point x="408" y="826" type="curve" smooth="yes"/>
      <point x="408" y="843"/>
      <point x="386" y="857"/>
    </contour>
  </outline>
</glyph>
<glyph name="uring" format="1">
  <advance width="541"/>
  <unicode hex="016F"/>
  <outline>
    <contour>
      <point x="157" y="286" type="curve" smooth="yes"/>
      <point x="157" y="186"/>
      <point x="157" y="85"/>
      <point x="226" y="85" type="curve" smooth="yes"/>
      <point x="281" y="85"/>
      <point x="335" y="125"/>
      <point x="353" y="143" type="curve" smooth="yes"/>
      <point x="357" y="147"/>
      <point x="359" y="155"/>
      <point x="359" y="167" type="curve" smooth="yes"/>
      <point x="359" y="491" type="line"/>
      <point x="458" y="508" type="line"/>
      <point x="458" y="12" type="line"/>
      <point x="356" y="-4" type="line"/>
      <point x="356" y="36" type="line"/>
      <point x="322" y="14"/>
      <point x="273" y="-5"/>
      <point x="223" y="-5" type="curve" smooth="yes"/>
      <point x="62.9756" y="-5"/>
      <point x="61.9999" y="142.34"/>
      <point x="61.9999" y="280.873" type="curve" smooth="yes"/>
      <point x="61.9999" y="282.584"/>
      <point x="62" y="284.293"/>
      <point x="62" y="286" type="curve" smooth="yes"/>
      <point x="62" y="328"/>
      <point x="67" y="418"/>
      <point x="79" y="492" type="curve"/>
      <point x="178" y="509" type="line"/>
      <point x="175" y="488"/>
      <point x="157" y="359"/>
    </contour>
    <contour>
      <point x="271" y="542" type="curve" smooth="yes"/>
      <point x="195" y="542"/>
      <point x="142" y="592"/>
      <point x="142" y="655" type="curve" smooth="yes"/>
      <point x="142" y="726"/>
      <point x="208" y="782"/>
      <point x="290" y="782" type="curve" smooth="yes"/>
      <point x="369" y="782"/>
      <point x="419" y="727"/>
      <point x="419" y="668" type="curve" smooth="yes"/>
      <point x="419" y="584"/>
      <point x="341" y="542"/>
    </contour>
    <contour>
      <point x="287" y="697" type="curve" smooth="yes"/>
      <point x="264" y="697"/>
      <point x="228" y="682"/>
      <point x="228" y="655" type="curve" smooth="yes"/>
      <point x="228" y="638"/>
      <point x="248" y="626"/>
      <point x="273" y="626" type="curve" smooth="yes"/>
      <point x="301" y="626"/>
      <point x="335" y="643"/>
      <point x="335" y="666" type="curve" smooth="yes"/>
      <point x="335" y="683"/>
      <point x="313" y="697"/>
    </contour>
  </outline>
</glyph>
<glyph name="uhungarumlaut" format="1">
  <advance width="564"/>
  <unicode hex="0171"/>
  <outline>
    <contour>
      <point x="56" y="597" type="line"/>
      <point x="233" y="731" type="line"/>
      <point x="309" y="656" type="line"/>
      <point x="129" y="535" type="line"/>
    </contour>
    <contour>
      <point x="275" y="597" type="line"/>
      <point x="452" y="731" type="line"/>
      <point x="529" y="656" type="line"/>
      <point x="338" y="535" type="line"/>
    </contour>
    <contour>
      <point x="157" y="286" type="curve" smooth="yes"/>
      <point x="157" y="186"/>
      <point x="157" y="85"/>
      <point x="226" y="85" type="curve" smooth="yes"/>
      <point x="281" y="85"/>
      <point x="335" y="125"/>
      <point x="353" y="143" type="curve" smooth="yes"/>
      <point x="357" y="147"/>
      <point x="359" y="155"/>
      <point x="359" y="167" type="curve" smooth="yes"/>
      <point x="359" y="491" type="line"/>
      <point x="458" y="508" type="line"/>
      <point x="458" y="12" type="line"/>
      <point x="356" y="-4" type="line"/>
      <point x="356" y="36" type="line"/>
      <point x="322" y="14"/>
      <point x="273" y="-5"/>
      <point x="223" y="-5" type="curve" smooth="yes"/>
      <point x="62.9756" y="-5"/>
      <point x="61.9999" y="142.34"/>
      <point x="61.9999" y="280.873" type="curve" smooth="yes"/>
      <point x="61.9999" y="282.584"/>
      <point x="62" y="284.293"/>
      <point x="62" y="286" type="curve" smooth="yes"/>
      <point x="62" y="328"/>
      <point x="67" y="418"/>
      <point x="79" y="492" type="curve"/>
      <point x="178" y="509" type="line"/>
      <point x="175" y="488"/>
      <point x="157" y="359"/>
    </contour>
  </outline>
</glyph>
<glyph name="Ydieresis" format="1">
  <advance width="654"/>
  <unicode hex="0178"/>
  <outline>
    <contour>
      <point x="317" y="813" type="line"/>
      <point x="305" y="689" type="line"/>
      <point x="187" y="674" type="line"/>
      <point x="201" y="798" type="line"/>
    </contour>
    <contour>
      <point x="486" y="813" type="line"/>
      <point x="474" y="689" type="line"/>
      <point x="356" y="674" type="line"/>
      <point x="370" y="798" type="line"/>
    </contour>
    <contour>
      <point x="324" y="318" type="line"/>
      <point x="537" y="677" type="line"/>
      <point x="650" y="677" type="line"/>
      <point x="248" y="0" type="line"/>
      <point x="135" y="0" type="line"/>
      <point x="266" y="223" type="line"/>
      <point x="2" y="677" type="line"/>
      <point x="114" y="677" type="line"/>
    </contour>
  </outline>
</glyph>
<glyph name="Zdotaccent" format="1">
  <advance width="647"/>
  <unicode hex="017B"/>
  <outline>
    <contour>
      <point x="77" y="0" type="line"/>
      <point x="41" y="77" type="line"/>
      <point x="442" y="578" type="line"/>
      <point x="70" y="578" type="line"/>
      <point x="87" y="681" type="line"/>
      <point x="547" y="681" type="line"/>
      <point x="583" y="603" type="line"/>
      <point x="182" y="103" type="line"/>
      <point x="574" y="103" type="line"/>
      <point x="557" y="0" type="line"/>
    </contour>
    <contour>
      <point x="377" y="834" type="line"/>
      <point x="365" y="720" type="line"/>
      <point x="247" y="704" type="line"/>
      <point x="261" y="819" type="line"/>
    </contour>
  </outline>
</glyph>
<glyph name="caron" format="1">
  <advance width="526"/>
  <unicode hex="02C7"/>
  <outline>
    <contour>
      <point x="353" y="702" type="line"/>
      <point x="410" y="627" type="line"/>
      <point x="241" y="492" type="line"/>
      <point x="92" y="632" type="line"/>
      <point x="156" y="702" type="line"/>
      <point x="245" y="619" type="line"/>
    </contour>
  </outline>
</glyph>
<glyph name="dotaccent" format="1">
  <advance width="526"/>
  <unicode hex="02D9"/>
  <outline>
    <contour>
      <point x="314" y="630" type="line"/>
      <point x="303" y="509" type="line"/>
      <point x="188" y="494" type="line"/>
      <point x="202" y="616" type="line"/>
    </contour>
  </outline>
</glyph>
<glyph name="endash" format="1">
  <advance width="622"/>
  <unicode hex="2013"/>
  <outline>
    <contour>
      <point x="515" y="202" type="line"/>
      <point x="64" y="202" type="line"/>
      <point x="80" y="296" type="line"/>
      <point x="533" y="296" type="line"/>
    </contour>
  </outline>
</glyph>
<glyph name="quoteright" format="1">
  <advance width="208"/>
  <unicode hex="2019"/>
  <outline>
    <contour>
      <point x="96" y="732" type="line"/>
      <point x="195" y="677" type="line"/>
      <point x="89" y="487" type="line"/>
      <point x="4" y="535" type="line"/>
      <point x="53" y="621" type="line"/>
      <point x="11" y="645" type="line"/>
    </contour>
  </outline>
</glyph>
<glyph name="quotesinglbase" format="1">
  <advance width="342"/>
  <unicode hex="201A"/>
  <outline>
    <contour>
      <point x="163" y="127" type="line"/>
      <point x="262" y="72" type="line"/>
      <point x="156" y="-118" type="line"/>
      <point x="71" y="-70" type="line"/>
      <point x="120" y="16" type="line"/>
      <point x="78" y="40" type="line"/>
    </contour>
  </outline>
</glyph>
<glyph name="quotedblleft" format="1">
  <advance width="374"/>
  <unicode hex="201C"/>
  <outline>
    <contour>
      <point x="278" y="489" type="line"/>
      <point x="179" y="545" type="line"/>
      <point x="286" y="735" type="line"/>
      <point x="370" y="687" type="line"/>
      <point x="321" y="600" type="line"/>
      <point x="364" y="577" type="line"/>
    </contour>
    <contour>
      <point x="87" y="489" type="line"/>
      <point x="-12" y="545" type="line"/>
      <point x="95" y="735" type="line"/>
      <point x="179" y="687" type="line"/>
      <point x="130" y="600" type="line"/>
      <point x="173" y="577" type="line"/>
    </contour>
  </outline>
</glyph>
<glyph name="quotedblbase" format="1">
  <advance width="533"/>
  <unicode hex="201E"/>
  <outline>
    <contour>
      <point x="163" y="127" type="line"/>
      <point x="262" y="72" type="line"/>
      <point x="156" y="-118" type="line"/>
      <point x="71" y="-70" type="line"/>
      <point x="120" y="16" type="line"/>
      <point x="78" y="40" type="line"/>
    </contour>
    <contour>
      <point x="354" y="127" type="line"/>
      <point x="453" y="72" type="line"/>
      <point x="347" y="-118" type="line"/>
      <point x="262" y="-70" type="line"/>
      <point x="311" y="16" type="line"/>
      <point x="268" y="40" type="line"/>
    </contour>
  </outline>
</glyph>
<glyph name="bullet" format="1">
  <advance width="404"/>
  <unicode hex="2022"/>
  <outline>
    <contour>
      <point x="297" y="253" type="curve" smooth="yes"/>
      <point x="297" y="196"/>
      <point x="252" y="149"/>
      <point x="194" y="149" type="curve" smooth="yes"/>
      <point x="137" y="149"/>
      <point x="91" y="196"/>
      <point x="91" y="253" type="curve" smooth="yes"/>
      <point x="91" y="310"/>
      <point x="137" y="356"/>
      <point x="194" y="356" type="curve" smooth="yes"/>
      <point x="252" y="356"/>
      <point x="297" y="310"/>
    </contour>
  </outline>
</glyph>
<glyph name="guilsinglleft" format="1">
  <advance width="430"/>
  <unicode hex="2039"/>
  <outline>
    <contour>
      <point x="275" y="49" type="line"/>
      <point x="53" y="251" type="line"/>
      <point x="293" y="455" type="line"/>
      <point x="354" y="384" type="line"/>
      <point x="196" y="248" type="line"/>
      <point x="339" y="119" type="line"/>
    </contour>
  </outline>
</glyph>
<glyph name="guilsinglright" format="1">
  <advance width="430"/>
  <unicode hex="203A"/>
  <outline>
    <contour>
      <point x="139" y="51" type="line"/>
      <point x="73" y="121" type="line"/>
      <point x="217" y="252" type="line"/>
      <point x="60" y="386" type="line"/>
      <point x="121" y="457" type="line"/>
      <point x="361" y="253" type="line"/>
    </contour>
  </outline>
</glyph>
